G04 #@! TF.GenerationSoftware,KiCad,Pcbnew,(6.0.9-0)*
G04 #@! TF.CreationDate,2022-12-09T10:48:47+09:00*
G04 #@! TF.ProjectId,MEZ6502RAM,4d455a36-3530-4325-9241-4d2e6b696361,A*
G04 #@! TF.SameCoordinates,PX5f5e100PY8f0d180*
G04 #@! TF.FileFunction,Copper,L2,Bot*
G04 #@! TF.FilePolarity,Positive*
%FSLAX46Y46*%
G04 Gerber Fmt 4.6, Leading zero omitted, Abs format (unit mm)*
G04 Created by KiCad (PCBNEW (6.0.9-0)) date 2022-12-09 10:48:47*
%MOMM*%
%LPD*%
G01*
G04 APERTURE LIST*
G04 #@! TA.AperFunction,ComponentPad*
%ADD10R,1.600000X1.600000*%
G04 #@! TD*
G04 #@! TA.AperFunction,ComponentPad*
%ADD11O,1.600000X1.600000*%
G04 #@! TD*
G04 #@! TA.AperFunction,ComponentPad*
%ADD12C,1.600000*%
G04 #@! TD*
G04 #@! TA.AperFunction,ComponentPad*
%ADD13R,1.700000X1.700000*%
G04 #@! TD*
G04 #@! TA.AperFunction,ComponentPad*
%ADD14O,1.700000X1.700000*%
G04 #@! TD*
G04 #@! TA.AperFunction,ViaPad*
%ADD15C,0.605000*%
G04 #@! TD*
G04 #@! TA.AperFunction,Conductor*
%ADD16C,0.600000*%
G04 #@! TD*
G04 #@! TA.AperFunction,Conductor*
%ADD17C,0.152400*%
G04 #@! TD*
G04 #@! TA.AperFunction,Conductor*
%ADD18C,0.400000*%
G04 #@! TD*
G04 APERTURE END LIST*
D10*
X29210000Y50800000D03*
D11*
X29210000Y48260000D03*
X29210000Y45720000D03*
X29210000Y43180000D03*
X29210000Y40640000D03*
X29210000Y38100000D03*
X29210000Y35560000D03*
X29210000Y33020000D03*
X29210000Y30480000D03*
X29210000Y27940000D03*
X29210000Y25400000D03*
X29210000Y22860000D03*
X29210000Y20320000D03*
X29210000Y17780000D03*
X29210000Y15240000D03*
X29210000Y12700000D03*
X44450000Y12700000D03*
X44450000Y15240000D03*
X44450000Y17780000D03*
X44450000Y20320000D03*
X44450000Y22860000D03*
X44450000Y25400000D03*
X44450000Y27940000D03*
X44450000Y30480000D03*
X44450000Y33020000D03*
X44450000Y35560000D03*
X44450000Y38100000D03*
X44450000Y40640000D03*
X44450000Y43180000D03*
X44450000Y45720000D03*
X44450000Y48260000D03*
X44450000Y50800000D03*
D12*
X29210000Y55245000D03*
D11*
X39370000Y55245000D03*
D10*
X7620000Y50800000D03*
D11*
X7620000Y48260000D03*
X7620000Y45720000D03*
X7620000Y43180000D03*
X7620000Y40640000D03*
X7620000Y38100000D03*
X7620000Y35560000D03*
X7620000Y33020000D03*
X7620000Y30480000D03*
X7620000Y27940000D03*
X7620000Y25400000D03*
X7620000Y22860000D03*
X7620000Y20320000D03*
X7620000Y17780000D03*
X7620000Y15240000D03*
X7620000Y12700000D03*
X7620000Y10160000D03*
X7620000Y7620000D03*
X7620000Y5080000D03*
X7620000Y2540000D03*
X22860000Y2540000D03*
X22860000Y5080000D03*
X22860000Y7620000D03*
X22860000Y10160000D03*
X22860000Y12700000D03*
X22860000Y15240000D03*
X22860000Y17780000D03*
X22860000Y20320000D03*
X22860000Y22860000D03*
X22860000Y25400000D03*
X22860000Y27940000D03*
X22860000Y30480000D03*
X22860000Y33020000D03*
X22860000Y35560000D03*
X22860000Y38100000D03*
X22860000Y40640000D03*
X22860000Y43180000D03*
X22860000Y45720000D03*
X22860000Y48260000D03*
X22860000Y50800000D03*
D12*
X41930000Y55245000D03*
X44430000Y55245000D03*
X7580000Y55245000D03*
X5080000Y55245000D03*
D13*
X5085000Y50805000D03*
D14*
X5085000Y48265000D03*
X5085000Y45725000D03*
X5085000Y43185000D03*
X5085000Y40645000D03*
X5085000Y38105000D03*
X5085000Y35565000D03*
X5085000Y33025000D03*
X5085000Y30485000D03*
X5085000Y27945000D03*
X5085000Y25405000D03*
X5085000Y22865000D03*
X5085000Y20325000D03*
X5085000Y17785000D03*
X5085000Y15245000D03*
X5085000Y12705000D03*
X5085000Y10165000D03*
X5085000Y7625000D03*
X5085000Y5085000D03*
X5085000Y2545000D03*
D13*
X25405000Y50800000D03*
D14*
X25405000Y48260000D03*
X25405000Y45720000D03*
X25405000Y43180000D03*
X25405000Y40640000D03*
X25405000Y38100000D03*
X25405000Y35560000D03*
X25405000Y33020000D03*
X25405000Y30480000D03*
X25405000Y27940000D03*
X25405000Y25400000D03*
X25405000Y22860000D03*
X25405000Y20320000D03*
X25405000Y17780000D03*
X25405000Y15240000D03*
X25405000Y12700000D03*
X25405000Y10160000D03*
X25405000Y7620000D03*
X25405000Y5080000D03*
X25405000Y2540000D03*
D15*
X41275000Y42545000D03*
X46355000Y10160000D03*
X11430000Y53340000D03*
X18415000Y15875000D03*
X32385000Y42545000D03*
X11430000Y30480000D03*
X41275000Y15240000D03*
X41275000Y27305000D03*
X41275000Y46990000D03*
X11430000Y23495000D03*
X18415000Y34290000D03*
X32385000Y15240000D03*
X11430000Y5080000D03*
X32385000Y36830000D03*
X32385000Y50800000D03*
X11430000Y19050000D03*
X11430000Y46990000D03*
X18415000Y19050000D03*
X19685000Y53340000D03*
X11430000Y50800000D03*
X41275000Y50800000D03*
X1270000Y26670000D03*
X18415000Y23495000D03*
X32385000Y27305000D03*
X11430000Y40640000D03*
X11430000Y38100000D03*
X1905000Y1905000D03*
X11430000Y15875000D03*
X18415000Y41910000D03*
X10922000Y26924500D03*
X11684000Y27200600D03*
X20189100Y17780000D03*
X20189100Y15240000D03*
X8636000Y26670000D03*
X19728400Y33147000D03*
X19197800Y30988000D03*
X27344900Y24062400D03*
D16*
X28067000Y12700000D02*
X29210000Y12700000D01*
X25405000Y22860000D02*
X24153000Y21608000D01*
X21735000Y21608000D02*
X20955000Y20828000D01*
X27305000Y20960000D02*
X27305000Y13462000D01*
X20955000Y20828000D02*
X20955000Y3302000D01*
X25405000Y22860000D02*
X27305000Y20960000D01*
X21717000Y2540000D02*
X22860000Y2540000D01*
X20955000Y3302000D02*
X21717000Y2540000D01*
X24153000Y21608000D02*
X21735000Y21608000D01*
X27305000Y13462000D02*
X28067000Y12700000D01*
D17*
X6390400Y40413900D02*
X6390400Y40884700D01*
X43421400Y39142048D02*
X43421400Y35133939D01*
X8648600Y42753939D02*
X8648600Y44412548D01*
X8648600Y44412548D02*
X9346452Y45110400D01*
X3701600Y14232496D02*
X3701600Y7483029D01*
X43421400Y35133939D02*
X44450000Y34105339D01*
X7229300Y41723600D02*
X7618261Y41723600D01*
X31140400Y39725600D02*
X42837848Y39725600D01*
X4834629Y6350000D02*
X5362600Y6350000D01*
X2467900Y15466196D02*
X3701600Y14232496D01*
X3486652Y50805000D02*
X2467900Y49786248D01*
X6385300Y5337300D02*
X6385300Y4803600D01*
X5085000Y50805000D02*
X3486652Y50805000D01*
X6385300Y4803600D02*
X7620000Y3568900D01*
X2467900Y49786248D02*
X2467900Y40407600D01*
X30238600Y40627400D02*
X31140400Y39725600D01*
X28259000Y41910000D02*
X29394661Y41910000D01*
X25832400Y44336600D02*
X28259000Y41910000D01*
X6390400Y40884700D02*
X7229300Y41723600D01*
X7620000Y3568900D02*
X7620000Y2540000D01*
X29394661Y41910000D02*
X30238600Y41066061D01*
X30238600Y41066061D02*
X30238600Y40627400D01*
X44450000Y34105339D02*
X44450000Y33020000D01*
X2467900Y38715800D02*
X2467900Y15466196D01*
X2467900Y40407600D02*
X3313800Y39561700D01*
X5367600Y6355000D02*
X6385300Y5337300D01*
X5362600Y6350000D02*
X5367600Y6355000D01*
X3701600Y7483029D02*
X4834629Y6350000D01*
X9346452Y45110400D02*
X21405340Y45110400D01*
X7618261Y41723600D02*
X8648600Y42753939D01*
X3313800Y39561700D02*
X2467900Y38715800D01*
X5538200Y39561700D02*
X6390400Y40413900D01*
X21405340Y45110400D02*
X22179140Y44336600D01*
X22179140Y44336600D02*
X25832400Y44336600D01*
X3313800Y39561700D02*
X5538200Y39561700D01*
X42837848Y39725600D02*
X43421400Y39142048D01*
X5085000Y48265000D02*
X5085000Y47186100D01*
X7193939Y44208600D02*
X8013600Y44208600D01*
X3987600Y42739500D02*
X4637200Y42089900D01*
X3987600Y46223600D02*
X3987600Y42739500D01*
X28181100Y43180000D02*
X29210000Y43180000D01*
X21531592Y45415200D02*
X22305392Y44641400D01*
X6591400Y43606061D02*
X7193939Y44208600D01*
X5085000Y47186100D02*
X4950100Y47186100D01*
X4950100Y47186100D02*
X3987600Y46223600D01*
X26719700Y44641400D02*
X28181100Y43180000D01*
X9220200Y45415200D02*
X21531592Y45415200D01*
X6591400Y42786400D02*
X6591400Y43606061D01*
X22305392Y44641400D02*
X26719700Y44641400D01*
X5894900Y42089900D02*
X6591400Y42786400D01*
X4637200Y42089900D02*
X5894900Y42089900D01*
X8013600Y44208600D02*
X9220200Y45415200D01*
X28009471Y47180900D02*
X29634813Y47180900D01*
X29634813Y47180900D02*
X30543400Y46272313D01*
X30543400Y44163365D02*
X31153000Y43553765D01*
X31519156Y40640000D02*
X44450000Y40640000D01*
X21405339Y48260000D02*
X22484239Y49338900D01*
X30543400Y46272313D02*
X30543400Y44163365D01*
X9505713Y48260000D02*
X21405339Y48260000D01*
X7365500Y46926600D02*
X8172313Y46926600D01*
X8172313Y46926600D02*
X9505713Y48260000D01*
X31153000Y43553765D02*
X31153000Y41006156D01*
X22484239Y49338900D02*
X25851471Y49338900D01*
X5085000Y45725000D02*
X6163900Y45725000D01*
X25851471Y49338900D02*
X28009471Y47180900D01*
X31153000Y41006156D02*
X31519156Y40640000D01*
X6163900Y45725000D02*
X7365500Y46926600D01*
X29210000Y45720000D02*
X27178000Y45720000D01*
X9093948Y45720000D02*
X8065348Y44691400D01*
X21405340Y45720000D02*
X9093948Y45720000D01*
X26035000Y46863000D02*
X22548339Y46863000D01*
X27178000Y45720000D02*
X26035000Y46863000D01*
X6591400Y44691400D02*
X5085000Y43185000D01*
X22548339Y46863000D02*
X21405340Y45720000D01*
X8065348Y44691400D02*
X6591400Y44691400D01*
X42037000Y49644100D02*
X22358387Y49644100D01*
X46137600Y40894552D02*
X46137600Y19177004D01*
X22448800Y9081400D02*
X21789200Y9741000D01*
X26483600Y9719600D02*
X26483600Y9713229D01*
X21789200Y9741000D02*
X21789200Y11629200D01*
X5536100Y49344000D02*
X4595100Y49344000D01*
X6385400Y48494700D02*
X5536100Y49344000D01*
X44450000Y48260000D02*
X44450000Y47231100D01*
X45593000Y46088100D02*
X45593000Y41439152D01*
X22358387Y49644100D02*
X21304487Y48590200D01*
X9404861Y48590200D02*
X8046061Y47231400D01*
X25851771Y9081400D02*
X22448800Y9081400D01*
X4595100Y49344000D02*
X3672800Y48421700D01*
X3672800Y48421700D02*
X3672800Y42606600D01*
X3672800Y42606600D02*
X4555500Y41723900D01*
X46741300Y18573304D02*
X46741300Y12633400D01*
X46137600Y19177004D02*
X46741300Y18573304D01*
X43421100Y48260000D02*
X42037000Y49644100D01*
X8046061Y47231400D02*
X7174700Y47231400D01*
X44450000Y47231100D02*
X45593000Y46088100D01*
X21304487Y48590200D02*
X9404861Y48590200D01*
X26483600Y9713229D02*
X25851771Y9081400D01*
X21789200Y11629200D02*
X22860000Y12700000D01*
X44450000Y48260000D02*
X43421100Y48260000D01*
X7174700Y47231400D02*
X6385400Y48020700D01*
X27494400Y10730400D02*
X26483600Y9719600D01*
X6385400Y48020700D02*
X6385400Y48494700D01*
X46741300Y12633400D02*
X44838300Y10730400D01*
X45593000Y41439152D02*
X46137600Y40894552D01*
X5085000Y41723900D02*
X5085000Y40645000D01*
X4555500Y41723900D02*
X5085000Y41723900D01*
X44838300Y10730400D02*
X27494400Y10730400D01*
X29210000Y55245000D02*
X26159700Y52194700D01*
X3396800Y14106244D02*
X3396800Y4233200D01*
X3396800Y4233200D02*
X5085000Y2545000D01*
X26159700Y52194700D02*
X4445300Y52194700D01*
X2163100Y15339944D02*
X3396800Y14106244D01*
X2163100Y49912500D02*
X2163100Y15339944D01*
X4445300Y52194700D02*
X2163100Y49912500D01*
X21831400Y23888600D02*
X22860000Y22860000D01*
X11903989Y26669500D02*
X12564889Y27330400D01*
X42650200Y18944800D02*
X43421400Y18173600D01*
X11177000Y26669500D02*
X11903989Y26669500D01*
X24859400Y23959100D02*
X25833600Y23959100D01*
X43421400Y16268600D02*
X44450000Y15240000D01*
X23760300Y22860000D02*
X24859400Y23959100D01*
X12564889Y27330400D02*
X20498548Y27330400D01*
X25833600Y23959100D02*
X28140500Y21652200D01*
X43421400Y18173600D02*
X43421400Y16268600D01*
X10922000Y26924500D02*
X11177000Y26669500D01*
X28140500Y21652200D02*
X28140500Y19912600D01*
X28140500Y19912600D02*
X29108300Y18944800D01*
X21831400Y25997548D02*
X21831400Y23888600D01*
X20498548Y27330400D02*
X21831400Y25997548D01*
X22860000Y22860000D02*
X23760300Y22860000D01*
X29108300Y18944800D02*
X42650200Y18944800D01*
X25925500Y24298700D02*
X28393100Y21831100D01*
X44454200Y19250000D02*
X45788200Y17916000D01*
X29153561Y21831100D02*
X30238600Y20746061D01*
X12118600Y27635200D02*
X20624800Y27635200D01*
X23782300Y25400000D02*
X24883600Y24298700D01*
X22860000Y25400000D02*
X23782300Y25400000D01*
X20624800Y27635200D02*
X22860000Y25400000D01*
X24883600Y24298700D02*
X25925500Y24298700D01*
X28393100Y21831100D02*
X29153561Y21831100D01*
X11684000Y27200600D02*
X12118600Y27635200D01*
X45788200Y14038200D02*
X44450000Y12700000D01*
X31169000Y19250000D02*
X44454200Y19250000D01*
X30238600Y20180400D02*
X31169000Y19250000D01*
X45788200Y17916000D02*
X45788200Y14038200D01*
X30238600Y20746061D02*
X30238600Y20180400D01*
X26484000Y12505000D02*
X27344200Y11644800D01*
X5085000Y30485000D02*
X3078700Y28478700D01*
X3078700Y28478700D02*
X3078700Y15717500D01*
X23046800Y6350000D02*
X22666800Y6350000D01*
X8890000Y2540000D02*
X9918600Y1511400D01*
X45483100Y14762000D02*
X45483100Y15718000D01*
X23889000Y5507800D02*
X23046800Y6350000D01*
X44873800Y14152700D02*
X45483100Y14762000D01*
X8890000Y12884661D02*
X8890000Y2540000D01*
X22860000Y20320000D02*
X23888900Y19291100D01*
X21484000Y17928000D02*
X22860000Y19304000D01*
X23889000Y2100100D02*
X23889000Y5507800D01*
X43421400Y13126061D02*
X44448039Y14152700D01*
X23888900Y17747500D02*
X25126400Y16510000D01*
X22860000Y19304000D02*
X22860000Y20320000D01*
X23300300Y1511400D02*
X23889000Y2100100D01*
X7991061Y13783600D02*
X8890000Y12884661D01*
X22666800Y6350000D02*
X21484000Y7532800D01*
X44450000Y16751100D02*
X44450000Y17780000D01*
X25126400Y16510000D02*
X25728500Y16510000D01*
X3078700Y15717500D02*
X5012600Y13783600D01*
X42759800Y11644800D02*
X43421400Y12306400D01*
X9918600Y1511400D02*
X23300300Y1511400D01*
X25728500Y16510000D02*
X26484000Y15754500D01*
X23888900Y19291100D02*
X23888900Y17747500D01*
X21484000Y7532800D02*
X21484000Y17928000D01*
X27344200Y11644800D02*
X42759800Y11644800D01*
X44448039Y14152700D02*
X44873800Y14152700D01*
X45483100Y15718000D02*
X44450000Y16751100D01*
X5012600Y13783600D02*
X7991061Y13783600D01*
X43421400Y12306400D02*
X43421400Y13126061D01*
X26484000Y15754500D02*
X26484000Y12505000D01*
X9505713Y17780000D02*
X8172313Y19113400D01*
X20189100Y17780000D02*
X9505713Y17780000D01*
X25024300Y11543400D02*
X24194100Y12373600D01*
X26670000Y11340000D02*
X26466600Y11543400D01*
X3993400Y22430600D02*
X3993400Y25964400D01*
X26466600Y11543400D02*
X25024300Y11543400D01*
X24194100Y15417000D02*
X22860000Y16751100D01*
X8172313Y19113400D02*
X7310600Y19113400D01*
X6163600Y20260400D02*
X6163600Y20771771D01*
X44450000Y20320000D02*
X44450000Y20002500D01*
X6163600Y20771771D02*
X5531771Y21403600D01*
X44450000Y20002500D02*
X46117500Y18335000D01*
X5531771Y21403600D02*
X5020400Y21403600D01*
X24194100Y12373600D02*
X24194100Y15417000D01*
X3993400Y25964400D02*
X5085000Y27056000D01*
X5085000Y27056000D02*
X5085000Y27945000D01*
X46117500Y12910100D02*
X44547400Y11340000D01*
X44547400Y11340000D02*
X26670000Y11340000D01*
X46117500Y18335000D02*
X46117500Y12910100D01*
X5020400Y21403600D02*
X3993400Y22430600D01*
X7310600Y19113400D02*
X6163600Y20260400D01*
X22860000Y16751100D02*
X22860000Y17780000D01*
X10414000Y27940000D02*
X10030700Y27556700D01*
X6118600Y21831400D02*
X5085000Y22865000D01*
X10030700Y25507907D02*
X8648600Y24125807D01*
X8648600Y24125807D02*
X8648600Y22433939D01*
X22860000Y27940000D02*
X10414000Y27940000D01*
X10030700Y27556700D02*
X10030700Y25507907D01*
X8046061Y21831400D02*
X6118600Y21831400D01*
X8648600Y22433939D02*
X8046061Y21831400D01*
X44450000Y22860000D02*
X44450000Y21774661D01*
X46436500Y18447052D02*
X46436500Y12760300D01*
X9379461Y17475200D02*
X8046061Y18808600D01*
X6601400Y18808600D02*
X5085000Y20325000D01*
X19354800Y17475200D02*
X9379461Y17475200D01*
X44450000Y21774661D02*
X45478600Y20746061D01*
X26543748Y11035200D02*
X26340348Y11238600D01*
X20189100Y15240000D02*
X20189100Y16640900D01*
X24829400Y11238600D02*
X23889300Y12178700D01*
X46436500Y12760300D02*
X44711400Y11035200D01*
X45478600Y20746061D02*
X45478600Y19404952D01*
X45478600Y19404952D02*
X46436500Y18447052D01*
X23889300Y12178700D02*
X23889300Y13181800D01*
X26340348Y11238600D02*
X24829400Y11238600D01*
X23889300Y13181800D02*
X22860000Y14211100D01*
X20189100Y16640900D02*
X19354800Y17475200D01*
X22860000Y14211100D02*
X22860000Y15240000D01*
X8046061Y18808600D02*
X6601400Y18808600D01*
X44711400Y11035200D02*
X26543748Y11035200D01*
X22091400Y32251400D02*
X22860000Y33020000D01*
X9391400Y32251400D02*
X22091400Y32251400D01*
X5085000Y17785000D02*
X4953000Y17917000D01*
X4953000Y18860900D02*
X3688300Y20125600D01*
X8648600Y30053939D02*
X8648600Y31508600D01*
X6568150Y29361300D02*
X7955961Y29361300D01*
X3688300Y20125600D02*
X3688300Y28084300D01*
X7955961Y29361300D02*
X8648600Y30053939D01*
X4953000Y17917000D02*
X4953000Y18860900D01*
X8648600Y31508600D02*
X9391400Y32251400D01*
X4629400Y29025400D02*
X6232250Y29025400D01*
X3688300Y28084300D02*
X4629400Y29025400D01*
X6232250Y29025400D02*
X6568150Y29361300D01*
X10035244Y28854400D02*
X21361400Y28854400D01*
X22860000Y30353000D02*
X22860000Y30480000D01*
X8636000Y27455156D02*
X10035244Y28854400D01*
X8636000Y26670000D02*
X8636000Y27455156D01*
X21361400Y28854400D02*
X22860000Y30353000D01*
D18*
X6350000Y39370000D02*
X13970000Y39370000D01*
X13970000Y39370000D02*
X17780000Y43180000D01*
X17780000Y43180000D02*
X22860000Y43180000D01*
X5085000Y38105000D02*
X6350000Y39370000D01*
D17*
X30848200Y43427513D02*
X30848200Y40879904D01*
X25405000Y48260000D02*
X25405000Y48255000D01*
X45516100Y38521200D02*
X45516100Y37655000D01*
X44425900Y39611400D02*
X45516100Y38521200D01*
X31392904Y40335200D02*
X43138470Y40335200D01*
X26783900Y46876100D02*
X29508561Y46876100D01*
X29508561Y46876100D02*
X30238600Y46146061D01*
X43138470Y40335200D02*
X43862270Y39611400D01*
X30238600Y46146061D02*
X30238600Y44037113D01*
X30238600Y44037113D02*
X30848200Y43427513D01*
X30848200Y40879904D02*
X31392904Y40335200D01*
X45516100Y37655000D02*
X44450000Y36588900D01*
X44450000Y36588900D02*
X44450000Y35560000D01*
X43862270Y39611400D02*
X44425900Y39611400D01*
X25405000Y48255000D02*
X26783900Y46876100D01*
X31266652Y40030400D02*
X30543400Y40753652D01*
X30543400Y40753652D02*
X30543400Y43301261D01*
X44450000Y38544500D02*
X42964100Y40030400D01*
X26483900Y45720000D02*
X25405000Y45720000D01*
X42964100Y40030400D02*
X31266652Y40030400D01*
X44450000Y38100000D02*
X44450000Y38544500D01*
X30543400Y43301261D02*
X29203561Y44641100D01*
X29203561Y44641100D02*
X27562800Y44641100D01*
X27562800Y44641100D02*
X26483900Y45720000D01*
X4006400Y14358748D02*
X2773900Y15591248D01*
X4784100Y31755000D02*
X5396600Y31755000D01*
X24027000Y41802000D02*
X25405000Y43180000D01*
X22567339Y41802000D02*
X24027000Y41802000D01*
X6292400Y33188400D02*
X7635400Y34531400D01*
X25944500Y43180000D02*
X25944500Y42640500D01*
X5396600Y31755000D02*
X6292400Y32650800D01*
X6539500Y11619500D02*
X4645129Y11619500D01*
X15951948Y34544000D02*
X21717000Y40309052D01*
X2773900Y15591248D02*
X2773900Y29744800D01*
X4006400Y12258229D02*
X4006400Y14358748D01*
X21717000Y40951661D02*
X22567339Y41802000D01*
X7620000Y12700000D02*
X6539500Y11619500D01*
X8046061Y34531400D02*
X8058661Y34544000D01*
X4645129Y11619500D02*
X4006400Y12258229D01*
X27945000Y40640000D02*
X29210000Y40640000D01*
X7635400Y34531400D02*
X8046061Y34531400D01*
X6292400Y32650800D02*
X6292400Y33188400D01*
X8058661Y34544000D02*
X15951948Y34544000D01*
X27945000Y40640000D02*
X25405000Y43180000D01*
X21717000Y40309052D02*
X21717000Y40951661D01*
X2773900Y29744800D02*
X4784100Y31755000D01*
X3383500Y28211100D02*
X3383500Y17910100D01*
X6591100Y15297000D02*
X6591100Y15240000D01*
X21463000Y39624000D02*
X16078200Y34239200D01*
X29023900Y38100000D02*
X29210000Y38100000D01*
X26483900Y40640000D02*
X29023900Y38100000D01*
X6390400Y30253900D02*
X5473900Y29337400D01*
X23297500Y39611400D02*
X22433939Y39611400D01*
X5473900Y29337400D02*
X4509800Y29337400D01*
X5373100Y16515000D02*
X6591100Y15297000D01*
X4778600Y16515000D02*
X5373100Y16515000D01*
X7365100Y31750000D02*
X6390400Y30775300D01*
X25405000Y40640000D02*
X24326100Y40640000D01*
X22421339Y39624000D02*
X21463000Y39624000D01*
X6591100Y15240000D02*
X7620000Y15240000D01*
X16078200Y34239200D02*
X10363200Y34239200D01*
X4509800Y29337400D02*
X3383500Y28211100D01*
X3383500Y17910100D02*
X4778600Y16515000D01*
X22433939Y39611400D02*
X22421339Y39624000D01*
X6390400Y30775300D02*
X6390400Y30253900D01*
X25405000Y40640000D02*
X26483900Y40640000D01*
X7874000Y31750000D02*
X7365100Y31750000D01*
X10363200Y34239200D02*
X7874000Y31750000D01*
X24326100Y40640000D02*
X23297500Y39611400D01*
X26483900Y38100000D02*
X25405000Y38100000D01*
X29210000Y35560000D02*
X29023900Y35560000D01*
X23893600Y35138939D02*
X23893600Y36588600D01*
X22307687Y34353400D02*
X23108061Y34353400D01*
X23108061Y34353400D02*
X23893600Y35138939D01*
X29023900Y35560000D02*
X26483900Y38100000D01*
X23893600Y36588600D02*
X25405000Y38100000D01*
X19728400Y33147000D02*
X21101287Y33147000D01*
X21101287Y33147000D02*
X22307687Y34353400D01*
X27825900Y31635900D02*
X19845700Y31635900D01*
X25405000Y35560000D02*
X25908000Y35560000D01*
X25908000Y35560000D02*
X28448000Y33020000D01*
X29210000Y33020000D02*
X27825900Y31635900D01*
X28448000Y33020000D02*
X29210000Y33020000D01*
X19845700Y31635900D02*
X19197800Y30988000D01*
X9721600Y31946600D02*
X23252700Y31946600D01*
X8953400Y29927687D02*
X8953400Y31178400D01*
X7620000Y23888900D02*
X7118300Y23888900D01*
X6228300Y28003600D02*
X7193600Y28968900D01*
X23252700Y31946600D02*
X24326100Y33020000D01*
X7620000Y22860000D02*
X7620000Y23888900D01*
X24326100Y33020000D02*
X25405000Y33020000D01*
X8953400Y31178400D02*
X9721600Y31946600D01*
X7118300Y23888900D02*
X6228300Y24778900D01*
X7193600Y28968900D02*
X7994613Y28968900D01*
X6228300Y24778900D02*
X6228300Y28003600D01*
X7994613Y28968900D02*
X8953400Y29927687D01*
X21583887Y28549600D02*
X10161496Y28549600D01*
X9421100Y25760411D02*
X9060689Y25400000D01*
X9060689Y25400000D02*
X7620000Y25400000D01*
X25405000Y30480000D02*
X25641100Y30480000D01*
X25405000Y30480000D02*
X24326100Y30480000D01*
X22307687Y29273400D02*
X21583887Y28549600D01*
X10161496Y28549600D02*
X9421100Y27809204D01*
X23119500Y29273400D02*
X22307687Y29273400D01*
X25641100Y30480000D02*
X28181100Y27940000D01*
X24326100Y30480000D02*
X23119500Y29273400D01*
X28181100Y27940000D02*
X29210000Y27940000D01*
X9421100Y27809204D02*
X9421100Y25760411D01*
X27097200Y26242800D02*
X25405000Y27935000D01*
X9725900Y27682952D02*
X9725900Y25634159D01*
X6538200Y24970700D02*
X6538200Y26858200D01*
X10287748Y28244800D02*
X9725900Y27682952D01*
X24326100Y27940000D02*
X23297500Y28968600D01*
X22433939Y28968600D02*
X21710139Y28244800D01*
X28367200Y26242800D02*
X27097200Y26242800D01*
X7180700Y24328200D02*
X6538200Y24970700D01*
X6538200Y26858200D02*
X7620000Y27940000D01*
X25405000Y27940000D02*
X24326100Y27940000D01*
X8419941Y24328200D02*
X7180700Y24328200D01*
X21710139Y28244800D02*
X10287748Y28244800D01*
X23297500Y28968600D02*
X22433939Y28968600D01*
X29210000Y25400000D02*
X28367200Y26242800D01*
X9725900Y25634159D02*
X8419941Y24328200D01*
X25405000Y27935000D02*
X25405000Y27940000D01*
X30267400Y24968300D02*
X30267400Y33436300D01*
X26635900Y36647600D02*
X24967229Y36647600D01*
X24326400Y36006771D02*
X24326400Y34613400D01*
X23761600Y34048600D02*
X22433939Y34048600D01*
X25405000Y25250800D02*
X25405000Y25400000D01*
X28407600Y24367600D02*
X27375200Y25400000D01*
X28407600Y24367600D02*
X29666700Y24367600D01*
X27795800Y22860000D02*
X25405000Y25250800D01*
X24967229Y36647600D02*
X24326400Y36006771D01*
X29666700Y24367600D02*
X30267400Y24968300D01*
X7620000Y31064948D02*
X7620000Y30480000D01*
X21831400Y33446061D02*
X21831400Y33432600D01*
X29413700Y34290000D02*
X28993500Y34290000D01*
X21831400Y33432600D02*
X20955000Y32556200D01*
X28993500Y34290000D02*
X26635900Y36647600D01*
X24326400Y34613400D02*
X23761600Y34048600D01*
X27375200Y25400000D02*
X25405000Y25400000D01*
X22433939Y34048600D02*
X21831400Y33446061D01*
X20955000Y32556200D02*
X9111252Y32556200D01*
X29210000Y22860000D02*
X27795800Y22860000D01*
X30267400Y33436300D02*
X29413700Y34290000D01*
X9111252Y32556200D02*
X7620000Y31064948D01*
X44450000Y42151100D02*
X44450000Y43180000D01*
X30572200Y27778200D02*
X34544000Y31750000D01*
X45832800Y40768300D02*
X44450000Y42151100D01*
X45832800Y32884600D02*
X45832800Y40768300D01*
X44698200Y31750000D02*
X45832800Y32884600D01*
X34544000Y31750000D02*
X44698200Y31750000D01*
X27344900Y24062400D02*
X29792552Y24062400D01*
X30572200Y24842048D02*
X30572200Y27778200D01*
X29792552Y24062400D02*
X30572200Y24842048D01*
X8255000Y48895000D02*
X21178235Y48895000D01*
X21831400Y51226061D02*
X22495239Y51889900D01*
X21831400Y49548165D02*
X21831400Y51226061D01*
X36014900Y51889900D02*
X39370000Y55245000D01*
X21178235Y48895000D02*
X21831400Y49548165D01*
X7620000Y48260000D02*
X8255000Y48895000D01*
X22495239Y51889900D02*
X36014900Y51889900D01*
G04 #@! TA.AperFunction,Conductor*
G36*
X46518198Y56919998D02*
G01*
X46536373Y56905809D01*
X47332188Y56157743D01*
X47460299Y56037319D01*
X47496234Y55976088D01*
X47500000Y55945512D01*
X47500000Y10052190D01*
X47479998Y9984069D01*
X47463095Y9963095D01*
X46536905Y9036905D01*
X46474593Y9002879D01*
X46447810Y9000000D01*
X28500000Y9000000D01*
X27500000Y8000000D01*
X27500000Y1552191D01*
X27479998Y1484070D01*
X27463096Y1463096D01*
X26536780Y536778D01*
X26474467Y502753D01*
X26447988Y499873D01*
X12206061Y465694D01*
X1554532Y440131D01*
X1486364Y459970D01*
X1462578Y479667D01*
X873273Y1104331D01*
X534348Y1463591D01*
X502152Y1526868D01*
X500000Y1550055D01*
X500000Y15326389D01*
X1731792Y15326389D01*
X1733484Y15317127D01*
X1733484Y15317118D01*
X1741763Y15271792D01*
X1742414Y15267884D01*
X1750656Y15213060D01*
X1753616Y15206896D01*
X1754845Y15200167D01*
X1780422Y15150929D01*
X1782179Y15147413D01*
X1802120Y15105885D01*
X1802122Y15105881D01*
X1806198Y15097394D01*
X1810841Y15092372D01*
X1813993Y15086303D01*
X1818074Y15081525D01*
X1853249Y15046350D01*
X1856678Y15042785D01*
X1893295Y15003173D01*
X1899387Y14999634D01*
X1904924Y14994675D01*
X2933195Y13966404D01*
X2967221Y13904092D01*
X2970100Y13877309D01*
X2970100Y4266010D01*
X2969227Y4251202D01*
X2965492Y4219645D01*
X2967184Y4210383D01*
X2967184Y4210374D01*
X2975463Y4165048D01*
X2976114Y4161140D01*
X2984356Y4106316D01*
X2987316Y4100152D01*
X2988545Y4093423D01*
X3014122Y4044185D01*
X3015879Y4040669D01*
X3035820Y3999141D01*
X3035822Y3999137D01*
X3039898Y3990650D01*
X3044541Y3985628D01*
X3047693Y3979559D01*
X3051774Y3974781D01*
X3086949Y3939606D01*
X3090378Y3936041D01*
X3126995Y3896429D01*
X3133087Y3892890D01*
X3138624Y3887931D01*
X3928952Y3097603D01*
X3962978Y3035291D01*
X3960190Y2971144D01*
X3905703Y2795667D01*
X3879770Y2576560D01*
X3894200Y2356396D01*
X3895621Y2350800D01*
X3895622Y2350795D01*
X3919050Y2258548D01*
X3948511Y2142548D01*
X3950928Y2137306D01*
X3950928Y2137305D01*
X3988829Y2055093D01*
X4040883Y1942179D01*
X4168222Y1761998D01*
X4326264Y1608039D01*
X4331060Y1604834D01*
X4331063Y1604832D01*
X4422744Y1543573D01*
X4509717Y1485460D01*
X4515020Y1483182D01*
X4515023Y1483180D01*
X4707129Y1400645D01*
X4712436Y1398365D01*
X4762742Y1386982D01*
X4921995Y1350946D01*
X4922001Y1350945D01*
X4927632Y1349671D01*
X4933403Y1349444D01*
X4933405Y1349444D01*
X5001211Y1346780D01*
X5148098Y1341009D01*
X5257275Y1356839D01*
X5360738Y1371840D01*
X5360743Y1371841D01*
X5366452Y1372669D01*
X5371916Y1374524D01*
X5371921Y1374525D01*
X5569907Y1441732D01*
X5569912Y1441734D01*
X5575379Y1443590D01*
X5610210Y1463096D01*
X5720013Y1524589D01*
X5767884Y1551398D01*
X5808231Y1584954D01*
X5933086Y1688796D01*
X5937518Y1692482D01*
X5966581Y1727426D01*
X6074908Y1857674D01*
X6074910Y1857677D01*
X6078602Y1862116D01*
X6186410Y2054621D01*
X6188266Y2060088D01*
X6188268Y2060093D01*
X6255473Y2258073D01*
X6255474Y2258078D01*
X6257331Y2263548D01*
X6257804Y2266810D01*
X6292754Y2327680D01*
X6355780Y2360363D01*
X6426471Y2353783D01*
X6482383Y2310029D01*
X6502044Y2267713D01*
X6530845Y2154310D01*
X6533262Y2149067D01*
X6576802Y2054621D01*
X6619369Y1962286D01*
X6741405Y1789609D01*
X6770041Y1761713D01*
X6841109Y1692482D01*
X6892865Y1642063D01*
X6897661Y1638858D01*
X6897664Y1638856D01*
X7023026Y1555092D01*
X7068677Y1524589D01*
X7073985Y1522308D01*
X7073986Y1522308D01*
X7257650Y1443400D01*
X7257653Y1443399D01*
X7262953Y1441122D01*
X7268582Y1439848D01*
X7268583Y1439848D01*
X7463550Y1395731D01*
X7463553Y1395731D01*
X7469186Y1394456D01*
X7474957Y1394229D01*
X7474959Y1394229D01*
X7529400Y1392090D01*
X7680470Y1386154D01*
X7686179Y1386982D01*
X7686183Y1386982D01*
X7884015Y1415667D01*
X7884019Y1415668D01*
X7889730Y1416496D01*
X7977866Y1446414D01*
X8084483Y1482605D01*
X8084488Y1482607D01*
X8089955Y1484463D01*
X8094998Y1487287D01*
X8269395Y1584954D01*
X8269399Y1584957D01*
X8274442Y1587781D01*
X8437012Y1722988D01*
X8572219Y1885558D01*
X8575043Y1890601D01*
X8575046Y1890605D01*
X8623274Y1976723D01*
X8674011Y2026385D01*
X8743542Y2040732D01*
X8809793Y2015211D01*
X8822303Y2004252D01*
X9593677Y1232878D01*
X9603532Y1221788D01*
X9617370Y1204234D01*
X9617374Y1204230D01*
X9623204Y1196835D01*
X9668915Y1165243D01*
X9672038Y1163010D01*
X9716679Y1130038D01*
X9723129Y1127773D01*
X9728757Y1123883D01*
X9737732Y1121045D01*
X9737737Y1121042D01*
X9781646Y1107156D01*
X9785387Y1105908D01*
X9789879Y1104331D01*
X9828855Y1090643D01*
X9828858Y1090642D01*
X9837741Y1087523D01*
X9844577Y1087254D01*
X9851095Y1085193D01*
X9857359Y1084700D01*
X9907120Y1084700D01*
X9912066Y1084603D01*
X9965952Y1082486D01*
X9972763Y1084292D01*
X9980178Y1084700D01*
X23267490Y1084700D01*
X23282298Y1083827D01*
X23313855Y1080092D01*
X23323117Y1081784D01*
X23323126Y1081784D01*
X23368452Y1090063D01*
X23372360Y1090714D01*
X23374389Y1091019D01*
X23427184Y1098956D01*
X23433348Y1101916D01*
X23440077Y1103145D01*
X23489315Y1128722D01*
X23492831Y1130479D01*
X23534359Y1150420D01*
X23534363Y1150422D01*
X23542850Y1154498D01*
X23547872Y1159141D01*
X23553941Y1162293D01*
X23558719Y1166374D01*
X23593894Y1201549D01*
X23597460Y1204979D01*
X23630156Y1235203D01*
X23637071Y1241595D01*
X23640610Y1247687D01*
X23645569Y1253224D01*
X24167522Y1775177D01*
X24178612Y1785032D01*
X24196166Y1798870D01*
X24196170Y1798874D01*
X24203565Y1804704D01*
X24225137Y1835917D01*
X24280319Y1880581D01*
X24350893Y1888322D01*
X24414448Y1856679D01*
X24431685Y1836996D01*
X24488222Y1756998D01*
X24646264Y1603039D01*
X24651060Y1599834D01*
X24651063Y1599832D01*
X24735261Y1543573D01*
X24829717Y1480460D01*
X24835020Y1478182D01*
X24835023Y1478180D01*
X25015491Y1400645D01*
X25032436Y1393365D01*
X25112088Y1375342D01*
X25241995Y1345946D01*
X25242001Y1345945D01*
X25247632Y1344671D01*
X25253403Y1344444D01*
X25253405Y1344444D01*
X25319738Y1341838D01*
X25468098Y1336009D01*
X25577275Y1351839D01*
X25680738Y1366840D01*
X25680743Y1366841D01*
X25686452Y1367669D01*
X25691916Y1369524D01*
X25691921Y1369525D01*
X25889907Y1436732D01*
X25889912Y1436734D01*
X25895379Y1438590D01*
X25900990Y1441732D01*
X26048941Y1524589D01*
X26087884Y1546398D01*
X26094850Y1552191D01*
X26253086Y1683796D01*
X26257518Y1687482D01*
X26315334Y1756998D01*
X26394908Y1852674D01*
X26394910Y1852677D01*
X26398602Y1857116D01*
X26481002Y2004252D01*
X26503586Y2044578D01*
X26503587Y2044580D01*
X26506410Y2049621D01*
X26508266Y2055088D01*
X26508268Y2055093D01*
X26575475Y2253079D01*
X26575476Y2253084D01*
X26577331Y2258548D01*
X26578159Y2264257D01*
X26578160Y2264262D01*
X26608458Y2473228D01*
X26608991Y2476902D01*
X26610643Y2540000D01*
X26590454Y2759711D01*
X26584802Y2779754D01*
X26532134Y2966500D01*
X26530565Y2972064D01*
X26432980Y3169947D01*
X26300967Y3346733D01*
X26193175Y3446375D01*
X26143189Y3492582D01*
X26143186Y3492584D01*
X26138949Y3496501D01*
X25952350Y3614236D01*
X25749955Y3694983D01*
X25694096Y3738804D01*
X25670795Y3805868D01*
X25687451Y3874883D01*
X25738775Y3923937D01*
X25756144Y3931326D01*
X25889907Y3976732D01*
X25889912Y3976734D01*
X25895379Y3978590D01*
X25900990Y3981732D01*
X26066817Y4074600D01*
X26087884Y4086398D01*
X26098338Y4095092D01*
X26253086Y4223796D01*
X26257518Y4227482D01*
X26302052Y4281028D01*
X26394908Y4392674D01*
X26394910Y4392677D01*
X26398602Y4397116D01*
X26506410Y4589621D01*
X26508266Y4595088D01*
X26508268Y4595093D01*
X26575475Y4793079D01*
X26575476Y4793084D01*
X26577331Y4798548D01*
X26578159Y4804257D01*
X26578160Y4804262D01*
X26608458Y5013228D01*
X26608991Y5016902D01*
X26610643Y5080000D01*
X26590454Y5299711D01*
X26580314Y5335667D01*
X26532134Y5506500D01*
X26530565Y5512064D01*
X26432980Y5709947D01*
X26413130Y5736530D01*
X26304420Y5882109D01*
X26304420Y5882110D01*
X26300967Y5886733D01*
X26203586Y5976751D01*
X26143189Y6032582D01*
X26143186Y6032584D01*
X26138949Y6036501D01*
X25952350Y6154236D01*
X25749955Y6234983D01*
X25694096Y6278804D01*
X25670795Y6345868D01*
X25687451Y6414883D01*
X25738775Y6463937D01*
X25756144Y6471326D01*
X25889907Y6516732D01*
X25889912Y6516734D01*
X25895379Y6518590D01*
X25949177Y6548718D01*
X26077570Y6620622D01*
X26087884Y6626398D01*
X26096561Y6633614D01*
X26253086Y6763796D01*
X26257518Y6767482D01*
X26311985Y6832971D01*
X26394908Y6932674D01*
X26394910Y6932677D01*
X26398602Y6937116D01*
X26506410Y7129621D01*
X26508266Y7135088D01*
X26508268Y7135093D01*
X26575475Y7333079D01*
X26575476Y7333084D01*
X26577331Y7338548D01*
X26578159Y7344257D01*
X26578160Y7344262D01*
X26608458Y7553228D01*
X26608991Y7556902D01*
X26610643Y7620000D01*
X26590454Y7839711D01*
X26584802Y7859754D01*
X26545248Y8000000D01*
X26530565Y8052064D01*
X26432980Y8249947D01*
X26326058Y8393133D01*
X26304420Y8422109D01*
X26304420Y8422110D01*
X26300967Y8426733D01*
X26138949Y8576501D01*
X26140368Y8578036D01*
X26103961Y8627886D01*
X26099732Y8698757D01*
X26133433Y8759617D01*
X26145365Y8771549D01*
X26148931Y8774979D01*
X26181627Y8805203D01*
X26188542Y8811595D01*
X26192081Y8817687D01*
X26197040Y8823224D01*
X26762122Y9388306D01*
X26773212Y9398161D01*
X26790767Y9412000D01*
X26790770Y9412004D01*
X26798165Y9417833D01*
X26820518Y9450175D01*
X26835076Y9467631D01*
X27634240Y10266795D01*
X27696552Y10300821D01*
X27723335Y10303700D01*
X44805490Y10303700D01*
X44820298Y10302827D01*
X44851855Y10299092D01*
X44861117Y10300784D01*
X44861126Y10300784D01*
X44906452Y10309063D01*
X44910360Y10309714D01*
X44912389Y10310019D01*
X44965184Y10317956D01*
X44971348Y10320916D01*
X44978077Y10322145D01*
X45027315Y10347722D01*
X45030831Y10349479D01*
X45072359Y10369420D01*
X45072363Y10369422D01*
X45080850Y10373498D01*
X45085872Y10378141D01*
X45091941Y10381293D01*
X45096719Y10385374D01*
X45131894Y10420549D01*
X45135460Y10423979D01*
X45175071Y10460595D01*
X45178610Y10466687D01*
X45183569Y10472224D01*
X47019822Y12308477D01*
X47030912Y12318332D01*
X47048466Y12332170D01*
X47048470Y12332174D01*
X47055865Y12338004D01*
X47087411Y12383648D01*
X47089706Y12386860D01*
X47122662Y12431478D01*
X47124928Y12437929D01*
X47128817Y12443557D01*
X47145564Y12496513D01*
X47146800Y12500215D01*
X47162054Y12543651D01*
X47165176Y12552541D01*
X47165444Y12559373D01*
X47167507Y12565895D01*
X47168000Y12572159D01*
X47168000Y12621930D01*
X47168097Y12626877D01*
X47169844Y12671339D01*
X47170214Y12680752D01*
X47168408Y12687563D01*
X47168000Y12694977D01*
X47168000Y18540493D01*
X47168873Y18555304D01*
X47171501Y18577507D01*
X47172608Y18586858D01*
X47162636Y18641459D01*
X47161987Y18645357D01*
X47155144Y18690876D01*
X47153744Y18700188D01*
X47150784Y18706353D01*
X47149555Y18713080D01*
X47123997Y18762282D01*
X47122230Y18765819D01*
X47102281Y18807362D01*
X47102277Y18807368D01*
X47098202Y18815854D01*
X47093558Y18820878D01*
X47090407Y18826944D01*
X47086327Y18831722D01*
X47051151Y18866898D01*
X47047721Y18870464D01*
X47017497Y18903160D01*
X47017498Y18903160D01*
X47011105Y18910075D01*
X47005013Y18913614D01*
X46999476Y18918573D01*
X46601205Y19316844D01*
X46567179Y19379156D01*
X46564300Y19405939D01*
X46564300Y40861741D01*
X46565173Y40876552D01*
X46568908Y40908106D01*
X46558936Y40962707D01*
X46558287Y40966605D01*
X46551444Y41012124D01*
X46550044Y41021436D01*
X46547084Y41027601D01*
X46545855Y41034328D01*
X46520297Y41083530D01*
X46518530Y41087067D01*
X46498581Y41128610D01*
X46498577Y41128616D01*
X46494502Y41137102D01*
X46489858Y41142126D01*
X46486707Y41148192D01*
X46482627Y41152970D01*
X46447451Y41188146D01*
X46444021Y41191712D01*
X46428680Y41208308D01*
X46407405Y41231323D01*
X46401313Y41234862D01*
X46395776Y41239821D01*
X46056605Y41578992D01*
X46022579Y41641304D01*
X46019700Y41668087D01*
X46019700Y46055297D01*
X46020573Y46070106D01*
X46021377Y46076902D01*
X46024307Y46101655D01*
X46019666Y46127069D01*
X46014342Y46156222D01*
X46013692Y46160125D01*
X46006844Y46205675D01*
X46006843Y46205678D01*
X46005444Y46214984D01*
X46002484Y46221149D01*
X46001255Y46227877D01*
X45975678Y46277115D01*
X45973921Y46280631D01*
X45953980Y46322159D01*
X45953978Y46322163D01*
X45949902Y46330650D01*
X45945259Y46335672D01*
X45942107Y46341741D01*
X45938026Y46346519D01*
X45902851Y46381694D01*
X45899421Y46385260D01*
X45874790Y46411906D01*
X45862805Y46424871D01*
X45856713Y46428410D01*
X45851176Y46433369D01*
X45132394Y47152151D01*
X45098368Y47214463D01*
X45103433Y47285278D01*
X45140917Y47338117D01*
X45267012Y47442988D01*
X45402219Y47605558D01*
X45405043Y47610601D01*
X45405046Y47610605D01*
X45502713Y47785002D01*
X45502714Y47785004D01*
X45505537Y47790045D01*
X45507393Y47795512D01*
X45507395Y47795517D01*
X45569525Y47978548D01*
X45573504Y47990270D01*
X45575083Y48001155D01*
X45603314Y48195860D01*
X45603314Y48195862D01*
X45603846Y48199530D01*
X45605429Y48260000D01*
X45586081Y48470560D01*
X45577057Y48502559D01*
X45561236Y48558654D01*
X45528686Y48674069D01*
X45526127Y48679260D01*
X45437719Y48858531D01*
X45435165Y48863710D01*
X45308651Y49033133D01*
X45208286Y49125910D01*
X45157622Y49172743D01*
X45157620Y49172745D01*
X45153381Y49176663D01*
X44974554Y49289495D01*
X44778160Y49367848D01*
X44772503Y49368973D01*
X44772497Y49368975D01*
X44575234Y49408212D01*
X44512324Y49441119D01*
X44477192Y49502814D01*
X44480992Y49573709D01*
X44522517Y49631295D01*
X44581734Y49656487D01*
X44714015Y49675667D01*
X44714019Y49675668D01*
X44719730Y49676496D01*
X44807038Y49706133D01*
X44914483Y49742605D01*
X44914488Y49742607D01*
X44919955Y49744463D01*
X44926530Y49748145D01*
X45099395Y49844954D01*
X45099399Y49844957D01*
X45104442Y49847781D01*
X45267012Y49982988D01*
X45402219Y50145558D01*
X45405043Y50150601D01*
X45405046Y50150605D01*
X45502713Y50325002D01*
X45502717Y50325010D01*
X45505537Y50330045D01*
X45507393Y50335512D01*
X45507395Y50335517D01*
X45571647Y50524800D01*
X45573504Y50530270D01*
X45603846Y50739530D01*
X45605429Y50800000D01*
X45586081Y51010560D01*
X45528686Y51214069D01*
X45526129Y51219256D01*
X45437719Y51398531D01*
X45435165Y51403710D01*
X45332800Y51540793D01*
X45312104Y51568509D01*
X45312103Y51568510D01*
X45308651Y51573133D01*
X45153381Y51716663D01*
X44974554Y51829495D01*
X44778160Y51907848D01*
X44772503Y51908973D01*
X44772497Y51908975D01*
X44576442Y51947972D01*
X44576440Y51947972D01*
X44570775Y51949099D01*
X44565000Y51949175D01*
X44564996Y51949175D01*
X44458976Y51950563D01*
X44359346Y51951867D01*
X44353649Y51950888D01*
X44353648Y51950888D01*
X44156650Y51917038D01*
X44156649Y51917038D01*
X44150953Y51916059D01*
X43952575Y51842873D01*
X43947614Y51839921D01*
X43947613Y51839921D01*
X43930089Y51829495D01*
X43770856Y51734762D01*
X43611881Y51595345D01*
X43480976Y51429292D01*
X43478287Y51424181D01*
X43478285Y51424178D01*
X43464792Y51398531D01*
X43382523Y51242164D01*
X43319820Y51040227D01*
X43294967Y50830246D01*
X43308796Y50619251D01*
X43310217Y50613655D01*
X43310218Y50613650D01*
X43332784Y50524800D01*
X43360845Y50414310D01*
X43449369Y50222286D01*
X43571405Y50049609D01*
X43635238Y49987426D01*
X43701761Y49922622D01*
X43722865Y49902063D01*
X43727661Y49898858D01*
X43727664Y49898856D01*
X43870936Y49803125D01*
X43898677Y49784589D01*
X43903985Y49782308D01*
X43903986Y49782308D01*
X44087650Y49703400D01*
X44087653Y49703399D01*
X44092953Y49701122D01*
X44098582Y49699848D01*
X44098583Y49699848D01*
X44293550Y49655731D01*
X44293553Y49655731D01*
X44299186Y49654456D01*
X44304958Y49654229D01*
X44310687Y49653475D01*
X44310327Y49650743D01*
X44366604Y49631784D01*
X44410950Y49576341D01*
X44418282Y49505724D01*
X44386271Y49442353D01*
X44325081Y49406349D01*
X44315705Y49404368D01*
X44286326Y49399320D01*
X44156650Y49377038D01*
X44156649Y49377038D01*
X44150953Y49376059D01*
X43952575Y49302873D01*
X43947614Y49299921D01*
X43947613Y49299921D01*
X43808368Y49217079D01*
X43770856Y49194762D01*
X43611881Y49055345D01*
X43608310Y49050816D01*
X43608305Y49050810D01*
X43530970Y48952710D01*
X43473089Y48911596D01*
X43402169Y48908302D01*
X43342925Y48941620D01*
X42361923Y49922622D01*
X42352068Y49933712D01*
X42338230Y49951266D01*
X42338226Y49951270D01*
X42332396Y49958665D01*
X42286685Y49990257D01*
X42283562Y49992490D01*
X42238921Y50025462D01*
X42232471Y50027727D01*
X42226843Y50031617D01*
X42217868Y50034455D01*
X42217863Y50034458D01*
X42173954Y50048344D01*
X42170213Y50049592D01*
X42154779Y50055012D01*
X42126745Y50064857D01*
X42126742Y50064858D01*
X42117859Y50067977D01*
X42111023Y50068246D01*
X42104505Y50070307D01*
X42098241Y50070800D01*
X42048480Y50070800D01*
X42043534Y50070897D01*
X42043256Y50070908D01*
X41989648Y50073014D01*
X41982837Y50071208D01*
X41975422Y50070800D01*
X30486500Y50070800D01*
X30418379Y50090802D01*
X30371886Y50144458D01*
X30360500Y50196800D01*
X30360500Y51337200D01*
X30380502Y51405321D01*
X30434158Y51451814D01*
X30486500Y51463200D01*
X35982090Y51463200D01*
X35996898Y51462327D01*
X36028455Y51458592D01*
X36037717Y51460284D01*
X36037726Y51460284D01*
X36083052Y51468563D01*
X36086960Y51469214D01*
X36109343Y51472579D01*
X36141784Y51477456D01*
X36147948Y51480416D01*
X36154677Y51481645D01*
X36203915Y51507222D01*
X36207431Y51508979D01*
X36248959Y51528920D01*
X36248963Y51528922D01*
X36257450Y51532998D01*
X36262472Y51537641D01*
X36268541Y51540793D01*
X36273319Y51544874D01*
X36308494Y51580049D01*
X36312060Y51583479D01*
X36344756Y51613703D01*
X36351671Y51620095D01*
X36355210Y51626187D01*
X36360169Y51631724D01*
X38855775Y54127330D01*
X38918087Y54161356D01*
X38994604Y54154004D01*
X39007638Y54148405D01*
X39007643Y54148403D01*
X39012953Y54146122D01*
X39113577Y54123353D01*
X39213550Y54100731D01*
X39213553Y54100731D01*
X39219186Y54099456D01*
X39224957Y54099229D01*
X39224959Y54099229D01*
X39286989Y54096792D01*
X39430470Y54091154D01*
X39436179Y54091982D01*
X39436183Y54091982D01*
X39634015Y54120667D01*
X39634019Y54120668D01*
X39639730Y54121496D01*
X39735496Y54154004D01*
X39834483Y54187605D01*
X39834488Y54187607D01*
X39839955Y54189463D01*
X39844998Y54192287D01*
X40019395Y54289954D01*
X40019399Y54289957D01*
X40024442Y54292781D01*
X40187012Y54427988D01*
X40322219Y54590558D01*
X40325043Y54595601D01*
X40325046Y54595605D01*
X40422713Y54770002D01*
X40422714Y54770004D01*
X40425537Y54775045D01*
X40427393Y54780512D01*
X40427395Y54780517D01*
X40491647Y54969800D01*
X40493504Y54975270D01*
X40498785Y55011688D01*
X40523314Y55180860D01*
X40523314Y55180862D01*
X40523846Y55184530D01*
X40525289Y55239650D01*
X40526896Y55244636D01*
X40523921Y55261409D01*
X40523633Y55264546D01*
X40773707Y55264546D01*
X40776976Y55244594D01*
X40788796Y55064251D01*
X40790217Y55058655D01*
X40790218Y55058650D01*
X40812784Y54969800D01*
X40840845Y54859310D01*
X40843262Y54854067D01*
X40859480Y54818887D01*
X40929369Y54667286D01*
X41051405Y54494609D01*
X41202865Y54347063D01*
X41207661Y54343858D01*
X41207664Y54343856D01*
X41350936Y54248125D01*
X41378677Y54229589D01*
X41383985Y54227308D01*
X41383986Y54227308D01*
X41567650Y54148400D01*
X41567653Y54148399D01*
X41572953Y54146122D01*
X41578582Y54144848D01*
X41578583Y54144848D01*
X41773550Y54100731D01*
X41773553Y54100731D01*
X41779186Y54099456D01*
X41784957Y54099229D01*
X41784959Y54099229D01*
X41846989Y54096792D01*
X41990470Y54091154D01*
X41996179Y54091982D01*
X41996183Y54091982D01*
X42194015Y54120667D01*
X42194019Y54120668D01*
X42199730Y54121496D01*
X42295496Y54154004D01*
X42310031Y54158938D01*
X43708493Y54158938D01*
X43717789Y54146923D01*
X43768994Y54111069D01*
X43778489Y54105586D01*
X43975947Y54013510D01*
X43986239Y54009764D01*
X44196688Y53953375D01*
X44207481Y53951472D01*
X44424525Y53932483D01*
X44435475Y53932483D01*
X44652519Y53951472D01*
X44663312Y53953375D01*
X44873761Y54009764D01*
X44884053Y54013510D01*
X45081511Y54105586D01*
X45091006Y54111069D01*
X45143048Y54147509D01*
X45151424Y54157988D01*
X45144356Y54171434D01*
X44442812Y54872978D01*
X44428868Y54880592D01*
X44427035Y54880461D01*
X44420420Y54876210D01*
X43714923Y54170713D01*
X43708493Y54158938D01*
X42310031Y54158938D01*
X42394483Y54187605D01*
X42394488Y54187607D01*
X42399955Y54189463D01*
X42404998Y54192287D01*
X42579395Y54289954D01*
X42579399Y54289957D01*
X42584442Y54292781D01*
X42747012Y54427988D01*
X42882219Y54590558D01*
X42885043Y54595601D01*
X42885046Y54595605D01*
X42985537Y54775045D01*
X42987959Y54773689D01*
X43026278Y54818887D01*
X43094179Y54839623D01*
X43162511Y54820357D01*
X43209733Y54766880D01*
X43290586Y54593489D01*
X43296069Y54583994D01*
X43332509Y54531952D01*
X43342988Y54523576D01*
X43356434Y54530644D01*
X44057978Y55232188D01*
X44064356Y55243868D01*
X44794408Y55243868D01*
X44794539Y55242035D01*
X44798790Y55235420D01*
X45504287Y54529923D01*
X45516062Y54523493D01*
X45528077Y54532789D01*
X45563931Y54583994D01*
X45569414Y54593489D01*
X45661490Y54790947D01*
X45665236Y54801239D01*
X45721625Y55011688D01*
X45723528Y55022481D01*
X45742517Y55239525D01*
X45742517Y55250475D01*
X45723528Y55467519D01*
X45721625Y55478312D01*
X45665236Y55688761D01*
X45661490Y55699053D01*
X45569414Y55896511D01*
X45563931Y55906006D01*
X45527491Y55958048D01*
X45517012Y55966424D01*
X45503566Y55959356D01*
X44802022Y55257812D01*
X44794408Y55243868D01*
X44064356Y55243868D01*
X44065592Y55246132D01*
X44065461Y55247965D01*
X44061210Y55254580D01*
X43355713Y55960077D01*
X43343938Y55966507D01*
X43331923Y55957211D01*
X43296069Y55906006D01*
X43290586Y55896511D01*
X43207687Y55718732D01*
X43160770Y55665447D01*
X43092493Y55645986D01*
X43024533Y55666528D01*
X42980486Y55716253D01*
X42917719Y55843531D01*
X42915165Y55848710D01*
X42827202Y55966507D01*
X42792104Y56013509D01*
X42792103Y56013510D01*
X42788651Y56018133D01*
X42633381Y56161663D01*
X42454554Y56274495D01*
X42310386Y56332012D01*
X43708576Y56332012D01*
X43715644Y56318566D01*
X44417188Y55617022D01*
X44431132Y55609408D01*
X44432965Y55609539D01*
X44439580Y55613790D01*
X45145077Y56319287D01*
X45151507Y56331062D01*
X45142211Y56343077D01*
X45091006Y56378931D01*
X45081511Y56384414D01*
X44884053Y56476490D01*
X44873761Y56480236D01*
X44663312Y56536625D01*
X44652519Y56538528D01*
X44435475Y56557517D01*
X44424525Y56557517D01*
X44207481Y56538528D01*
X44196688Y56536625D01*
X43986239Y56480236D01*
X43975947Y56476490D01*
X43778489Y56384414D01*
X43768994Y56378931D01*
X43716952Y56342491D01*
X43708576Y56332012D01*
X42310386Y56332012D01*
X42258160Y56352848D01*
X42252503Y56353973D01*
X42252497Y56353975D01*
X42056442Y56392972D01*
X42056440Y56392972D01*
X42050775Y56394099D01*
X42045000Y56394175D01*
X42044996Y56394175D01*
X41938976Y56395563D01*
X41839346Y56396867D01*
X41833649Y56395888D01*
X41833648Y56395888D01*
X41636650Y56362038D01*
X41636649Y56362038D01*
X41630953Y56361059D01*
X41432575Y56287873D01*
X41427614Y56284921D01*
X41427613Y56284921D01*
X41410089Y56274495D01*
X41250856Y56179762D01*
X41091881Y56040345D01*
X40960976Y55874292D01*
X40958287Y55869181D01*
X40958285Y55869178D01*
X40944792Y55843531D01*
X40862523Y55687164D01*
X40799820Y55485227D01*
X40774967Y55275246D01*
X40775337Y55269604D01*
X40773707Y55264546D01*
X40523633Y55264546D01*
X40523180Y55269480D01*
X40506081Y55455560D01*
X40448686Y55659069D01*
X40442455Y55671706D01*
X40357719Y55843531D01*
X40355165Y55848710D01*
X40267202Y55966507D01*
X40232104Y56013509D01*
X40232103Y56013510D01*
X40228651Y56018133D01*
X40073381Y56161663D01*
X39894554Y56274495D01*
X39698160Y56352848D01*
X39692503Y56353973D01*
X39692497Y56353975D01*
X39496442Y56392972D01*
X39496440Y56392972D01*
X39490775Y56394099D01*
X39485000Y56394175D01*
X39484996Y56394175D01*
X39378976Y56395563D01*
X39279346Y56396867D01*
X39273649Y56395888D01*
X39273648Y56395888D01*
X39076650Y56362038D01*
X39076649Y56362038D01*
X39070953Y56361059D01*
X38872575Y56287873D01*
X38867614Y56284921D01*
X38867613Y56284921D01*
X38850089Y56274495D01*
X38690856Y56179762D01*
X38531881Y56040345D01*
X38400976Y55874292D01*
X38398287Y55869181D01*
X38398285Y55869178D01*
X38384792Y55843531D01*
X38302523Y55687164D01*
X38239820Y55485227D01*
X38214967Y55275246D01*
X38228796Y55064251D01*
X38230217Y55058655D01*
X38230218Y55058650D01*
X38252784Y54969800D01*
X38280845Y54859310D01*
X38280977Y54859024D01*
X38284761Y54789902D01*
X38251200Y54729644D01*
X35875060Y52353505D01*
X35812748Y52319479D01*
X35785965Y52316600D01*
X27189235Y52316600D01*
X27121114Y52336602D01*
X27074621Y52390258D01*
X27064517Y52460532D01*
X27094011Y52525112D01*
X27100140Y52531695D01*
X28695775Y54127330D01*
X28758087Y54161356D01*
X28834604Y54154004D01*
X28847638Y54148405D01*
X28847643Y54148403D01*
X28852953Y54146122D01*
X28953577Y54123353D01*
X29053550Y54100731D01*
X29053553Y54100731D01*
X29059186Y54099456D01*
X29064957Y54099229D01*
X29064959Y54099229D01*
X29126989Y54096792D01*
X29270470Y54091154D01*
X29276179Y54091982D01*
X29276183Y54091982D01*
X29474015Y54120667D01*
X29474019Y54120668D01*
X29479730Y54121496D01*
X29575496Y54154004D01*
X29674483Y54187605D01*
X29674488Y54187607D01*
X29679955Y54189463D01*
X29684998Y54192287D01*
X29859395Y54289954D01*
X29859399Y54289957D01*
X29864442Y54292781D01*
X30027012Y54427988D01*
X30162219Y54590558D01*
X30165043Y54595601D01*
X30165046Y54595605D01*
X30262713Y54770002D01*
X30262714Y54770004D01*
X30265537Y54775045D01*
X30267393Y54780512D01*
X30267395Y54780517D01*
X30331647Y54969800D01*
X30333504Y54975270D01*
X30338785Y55011688D01*
X30363314Y55180860D01*
X30363314Y55180862D01*
X30363846Y55184530D01*
X30365429Y55245000D01*
X30346081Y55455560D01*
X30288686Y55659069D01*
X30282455Y55671706D01*
X30197719Y55843531D01*
X30195165Y55848710D01*
X30107202Y55966507D01*
X30072104Y56013509D01*
X30072103Y56013510D01*
X30068651Y56018133D01*
X29913381Y56161663D01*
X29734554Y56274495D01*
X29538160Y56352848D01*
X29532503Y56353973D01*
X29532497Y56353975D01*
X29336442Y56392972D01*
X29336440Y56392972D01*
X29330775Y56394099D01*
X29325000Y56394175D01*
X29324996Y56394175D01*
X29218976Y56395563D01*
X29119346Y56396867D01*
X29113649Y56395888D01*
X29113648Y56395888D01*
X28916650Y56362038D01*
X28916649Y56362038D01*
X28910953Y56361059D01*
X28712575Y56287873D01*
X28707614Y56284921D01*
X28707613Y56284921D01*
X28690089Y56274495D01*
X28530856Y56179762D01*
X28371881Y56040345D01*
X28240976Y55874292D01*
X28238287Y55869181D01*
X28238285Y55869178D01*
X28224792Y55843531D01*
X28142523Y55687164D01*
X28079820Y55485227D01*
X28054967Y55275246D01*
X28068796Y55064251D01*
X28070217Y55058655D01*
X28070218Y55058650D01*
X28092784Y54969800D01*
X28120845Y54859310D01*
X28120976Y54859026D01*
X28124762Y54789907D01*
X28091200Y54729645D01*
X26019860Y52658305D01*
X25957548Y52624279D01*
X25930765Y52621400D01*
X4478103Y52621400D01*
X4463294Y52622273D01*
X4462133Y52622410D01*
X4431745Y52626007D01*
X4422481Y52624315D01*
X4422478Y52624315D01*
X4377178Y52616042D01*
X4373275Y52615392D01*
X4327725Y52608544D01*
X4327722Y52608543D01*
X4318416Y52607144D01*
X4312251Y52604184D01*
X4305523Y52602955D01*
X4256285Y52577378D01*
X4252769Y52575621D01*
X4211241Y52555680D01*
X4211237Y52555678D01*
X4202750Y52551602D01*
X4197728Y52546959D01*
X4191659Y52543807D01*
X4186881Y52539726D01*
X4151706Y52504551D01*
X4148141Y52501122D01*
X4108529Y52464505D01*
X4104990Y52458413D01*
X4100031Y52452876D01*
X1884578Y50237423D01*
X1873488Y50227568D01*
X1855934Y50213730D01*
X1855930Y50213726D01*
X1848535Y50207896D01*
X1816943Y50162185D01*
X1814710Y50159062D01*
X1781738Y50114421D01*
X1779473Y50107971D01*
X1775583Y50102343D01*
X1772745Y50093368D01*
X1772742Y50093363D01*
X1758856Y50049454D01*
X1757608Y50045713D01*
X1753656Y50034458D01*
X1742343Y50002245D01*
X1742342Y50002242D01*
X1739223Y49993359D01*
X1738954Y49986523D01*
X1736893Y49980005D01*
X1736400Y49973741D01*
X1736400Y49923980D01*
X1736303Y49919034D01*
X1734186Y49865148D01*
X1735992Y49858337D01*
X1736400Y49850922D01*
X1736400Y15372754D01*
X1735527Y15357946D01*
X1731792Y15326389D01*
X500000Y15326389D01*
X500000Y54158938D01*
X4358493Y54158938D01*
X4367789Y54146923D01*
X4418994Y54111069D01*
X4428489Y54105586D01*
X4625947Y54013510D01*
X4636239Y54009764D01*
X4846688Y53953375D01*
X4857481Y53951472D01*
X5074525Y53932483D01*
X5085475Y53932483D01*
X5302519Y53951472D01*
X5313312Y53953375D01*
X5523761Y54009764D01*
X5534053Y54013510D01*
X5731511Y54105586D01*
X5741006Y54111069D01*
X5793048Y54147509D01*
X5801424Y54157988D01*
X5794356Y54171434D01*
X5092812Y54872978D01*
X5078868Y54880592D01*
X5077035Y54880461D01*
X5070420Y54876210D01*
X4364923Y54170713D01*
X4358493Y54158938D01*
X500000Y54158938D01*
X500000Y55239525D01*
X3767483Y55239525D01*
X3786472Y55022481D01*
X3788375Y55011688D01*
X3844764Y54801239D01*
X3848510Y54790947D01*
X3940586Y54593489D01*
X3946069Y54583994D01*
X3982509Y54531952D01*
X3992988Y54523576D01*
X4006434Y54530644D01*
X4707978Y55232188D01*
X4714356Y55243868D01*
X5444408Y55243868D01*
X5444539Y55242035D01*
X5448790Y55235420D01*
X6154287Y54529923D01*
X6166062Y54523493D01*
X6178077Y54532789D01*
X6213931Y54583994D01*
X6219414Y54593489D01*
X6302680Y54772054D01*
X6349597Y54825339D01*
X6417875Y54844800D01*
X6485835Y54824258D01*
X6531300Y54771556D01*
X6579369Y54667286D01*
X6701405Y54494609D01*
X6852865Y54347063D01*
X6857661Y54343858D01*
X6857664Y54343856D01*
X7000936Y54248125D01*
X7028677Y54229589D01*
X7033985Y54227308D01*
X7033986Y54227308D01*
X7217650Y54148400D01*
X7217653Y54148399D01*
X7222953Y54146122D01*
X7228582Y54144848D01*
X7228583Y54144848D01*
X7423550Y54100731D01*
X7423553Y54100731D01*
X7429186Y54099456D01*
X7434957Y54099229D01*
X7434959Y54099229D01*
X7496989Y54096792D01*
X7640470Y54091154D01*
X7646179Y54091982D01*
X7646183Y54091982D01*
X7844015Y54120667D01*
X7844019Y54120668D01*
X7849730Y54121496D01*
X7945496Y54154004D01*
X8044483Y54187605D01*
X8044488Y54187607D01*
X8049955Y54189463D01*
X8054998Y54192287D01*
X8229395Y54289954D01*
X8229399Y54289957D01*
X8234442Y54292781D01*
X8397012Y54427988D01*
X8532219Y54590558D01*
X8535043Y54595601D01*
X8535046Y54595605D01*
X8632713Y54770002D01*
X8632714Y54770004D01*
X8635537Y54775045D01*
X8637393Y54780512D01*
X8637395Y54780517D01*
X8701647Y54969800D01*
X8703504Y54975270D01*
X8708785Y55011688D01*
X8733314Y55180860D01*
X8733314Y55180862D01*
X8733846Y55184530D01*
X8735429Y55245000D01*
X8716081Y55455560D01*
X8658686Y55659069D01*
X8652455Y55671706D01*
X8567719Y55843531D01*
X8565165Y55848710D01*
X8477202Y55966507D01*
X8442104Y56013509D01*
X8442103Y56013510D01*
X8438651Y56018133D01*
X8283381Y56161663D01*
X8104554Y56274495D01*
X7908160Y56352848D01*
X7902503Y56353973D01*
X7902497Y56353975D01*
X7706442Y56392972D01*
X7706440Y56392972D01*
X7700775Y56394099D01*
X7695000Y56394175D01*
X7694996Y56394175D01*
X7588976Y56395563D01*
X7489346Y56396867D01*
X7483649Y56395888D01*
X7483648Y56395888D01*
X7286650Y56362038D01*
X7286649Y56362038D01*
X7280953Y56361059D01*
X7082575Y56287873D01*
X7077614Y56284921D01*
X7077613Y56284921D01*
X7060089Y56274495D01*
X6900856Y56179762D01*
X6741881Y56040345D01*
X6610976Y55874292D01*
X6608284Y55869176D01*
X6608283Y55869174D01*
X6527201Y55715063D01*
X6477782Y55664090D01*
X6408649Y55647927D01*
X6341753Y55671706D01*
X6301498Y55720480D01*
X6219414Y55896511D01*
X6213931Y55906006D01*
X6177491Y55958048D01*
X6167012Y55966424D01*
X6153566Y55959356D01*
X5452022Y55257812D01*
X5444408Y55243868D01*
X4714356Y55243868D01*
X4715592Y55246132D01*
X4715461Y55247965D01*
X4711210Y55254580D01*
X4005713Y55960077D01*
X3993938Y55966507D01*
X3981923Y55957211D01*
X3946069Y55906006D01*
X3940586Y55896511D01*
X3848510Y55699053D01*
X3844764Y55688761D01*
X3788375Y55478312D01*
X3786472Y55467519D01*
X3767483Y55250475D01*
X3767483Y55239525D01*
X500000Y55239525D01*
X500000Y55945512D01*
X520002Y56013633D01*
X539701Y56037319D01*
X667812Y56157743D01*
X853204Y56332012D01*
X4358576Y56332012D01*
X4365644Y56318566D01*
X5067188Y55617022D01*
X5081132Y55609408D01*
X5082965Y55609539D01*
X5089580Y55613790D01*
X5795077Y56319287D01*
X5801507Y56331062D01*
X5792211Y56343077D01*
X5741006Y56378931D01*
X5731511Y56384414D01*
X5534053Y56476490D01*
X5523761Y56480236D01*
X5313312Y56536625D01*
X5302519Y56538528D01*
X5085475Y56557517D01*
X5074525Y56557517D01*
X4857481Y56538528D01*
X4846688Y56536625D01*
X4636239Y56480236D01*
X4625947Y56476490D01*
X4428489Y56384414D01*
X4418994Y56378931D01*
X4366952Y56342491D01*
X4358576Y56332012D01*
X853204Y56332012D01*
X1463625Y56905808D01*
X1526959Y56937890D01*
X1549923Y56940000D01*
X46450077Y56940000D01*
X46518198Y56919998D01*
G37*
G04 #@! TD.AperFunction*
G04 #@! TA.AperFunction,Conductor*
G36*
X8854116Y17388318D02*
G01*
X8886133Y17365083D01*
X9054538Y17196678D01*
X9064393Y17185588D01*
X9078231Y17168034D01*
X9078235Y17168030D01*
X9084065Y17160635D01*
X9091812Y17155281D01*
X9091814Y17155279D01*
X9115822Y17138686D01*
X9128892Y17129654D01*
X9129699Y17129096D01*
X9132911Y17126801D01*
X9177539Y17093838D01*
X9183990Y17091572D01*
X9189618Y17087683D01*
X9242574Y17070936D01*
X9246259Y17069706D01*
X9298602Y17051324D01*
X9305434Y17051056D01*
X9311956Y17048993D01*
X9318220Y17048500D01*
X9367991Y17048500D01*
X9372937Y17048403D01*
X9426813Y17046286D01*
X9433624Y17048092D01*
X9441038Y17048500D01*
X19125865Y17048500D01*
X19193986Y17028498D01*
X19214960Y17011595D01*
X19725495Y16501060D01*
X19759521Y16438748D01*
X19762400Y16411965D01*
X19762400Y15791646D01*
X19742398Y15723525D01*
X19719229Y15696697D01*
X19705987Y15685146D01*
X19705984Y15685142D01*
X19700262Y15680151D01*
X19609382Y15550842D01*
X19551970Y15403587D01*
X19550979Y15396058D01*
X19534619Y15271792D01*
X19531340Y15246888D01*
X19538367Y15183237D01*
X19547845Y15097394D01*
X19548684Y15089792D01*
X19602999Y14941367D01*
X19607236Y14935061D01*
X19607238Y14935058D01*
X19628627Y14903229D01*
X19691152Y14810183D01*
X19808051Y14703812D01*
X19814724Y14700189D01*
X19814728Y14700186D01*
X19940276Y14632020D01*
X19946949Y14628397D01*
X20099827Y14588290D01*
X20183177Y14586980D01*
X20250261Y14585926D01*
X20250264Y14585926D01*
X20257858Y14585807D01*
X20411920Y14621092D01*
X20553119Y14692108D01*
X20673302Y14794754D01*
X20716010Y14854188D01*
X20761094Y14916929D01*
X20761095Y14916930D01*
X20765531Y14923104D01*
X20814393Y15044653D01*
X20858359Y15100398D01*
X20925484Y15123523D01*
X20994455Y15106686D01*
X21043375Y15055234D01*
X21057300Y14997657D01*
X21057300Y7565610D01*
X21056427Y7550802D01*
X21052692Y7519245D01*
X21054384Y7509983D01*
X21054384Y7509974D01*
X21062663Y7464648D01*
X21063314Y7460740D01*
X21071556Y7405916D01*
X21074516Y7399752D01*
X21075745Y7393023D01*
X21101322Y7343785D01*
X21103079Y7340269D01*
X21123020Y7298741D01*
X21123022Y7298737D01*
X21127098Y7290250D01*
X21131741Y7285228D01*
X21134893Y7279159D01*
X21138974Y7274381D01*
X21174148Y7239207D01*
X21177578Y7235641D01*
X21214195Y7196029D01*
X21220289Y7192489D01*
X21225814Y7187541D01*
X22203030Y6210326D01*
X22237054Y6148015D01*
X22231990Y6077200D01*
X22187998Y6019298D01*
X22185821Y6017716D01*
X22180856Y6014762D01*
X22021881Y5875345D01*
X21890976Y5709292D01*
X21888287Y5704181D01*
X21888285Y5704178D01*
X21854966Y5640849D01*
X21792523Y5522164D01*
X21729820Y5320227D01*
X21704967Y5110246D01*
X21718796Y4899251D01*
X21720217Y4893655D01*
X21720218Y4893650D01*
X21769424Y4699905D01*
X21770845Y4694310D01*
X21773262Y4689067D01*
X21819107Y4589621D01*
X21859369Y4502286D01*
X21981405Y4329609D01*
X22014881Y4296998D01*
X22081109Y4232482D01*
X22132865Y4182063D01*
X22137661Y4178858D01*
X22137664Y4178856D01*
X22265524Y4093423D01*
X22308677Y4064589D01*
X22313985Y4062308D01*
X22313986Y4062308D01*
X22430940Y4012061D01*
X22485634Y3966793D01*
X22507171Y3899142D01*
X22488714Y3830586D01*
X22436123Y3782892D01*
X22421318Y3777380D01*
X22421413Y3777119D01*
X22405947Y3771490D01*
X22208489Y3679414D01*
X22198993Y3673931D01*
X22020533Y3548972D01*
X22012125Y3541916D01*
X21858084Y3387875D01*
X21851028Y3379467D01*
X21726069Y3201007D01*
X21720586Y3191511D01*
X21628510Y2994053D01*
X21624764Y2983761D01*
X21578606Y2811497D01*
X21578942Y2797401D01*
X21586884Y2794000D01*
X22988000Y2794000D01*
X23056121Y2773998D01*
X23102614Y2720342D01*
X23114000Y2668000D01*
X23114000Y2412000D01*
X23093998Y2343879D01*
X23040342Y2297386D01*
X22988000Y2286000D01*
X21592033Y2286000D01*
X21578502Y2282027D01*
X21577273Y2273478D01*
X21624638Y2096711D01*
X21622948Y2025735D01*
X21583154Y1966939D01*
X21517890Y1938991D01*
X21502931Y1938100D01*
X10147535Y1938100D01*
X10079414Y1958102D01*
X10058440Y1975005D01*
X9353605Y2679840D01*
X9319579Y2742152D01*
X9316700Y2768935D01*
X9316700Y12851850D01*
X9317573Y12866661D01*
X9321308Y12898215D01*
X9311336Y12952816D01*
X9310687Y12956714D01*
X9309234Y12966383D01*
X9302444Y13011545D01*
X9299484Y13017710D01*
X9298255Y13024437D01*
X9272697Y13073639D01*
X9270930Y13077176D01*
X9250981Y13118719D01*
X9250977Y13118725D01*
X9246902Y13127211D01*
X9242258Y13132235D01*
X9239107Y13138301D01*
X9235027Y13143079D01*
X9199851Y13178255D01*
X9196421Y13181821D01*
X9166197Y13214517D01*
X9166198Y13214517D01*
X9159805Y13221432D01*
X9153713Y13224971D01*
X9148176Y13229930D01*
X8315984Y14062122D01*
X8306129Y14073212D01*
X8292291Y14090765D01*
X8292290Y14090766D01*
X8286457Y14098165D01*
X8278706Y14103522D01*
X8276557Y14105540D01*
X8240590Y14166752D01*
X8243427Y14237692D01*
X8282239Y14294266D01*
X8292788Y14303039D01*
X8437012Y14422988D01*
X8572219Y14585558D01*
X8575043Y14590601D01*
X8575046Y14590605D01*
X8672713Y14765002D01*
X8672714Y14765004D01*
X8675537Y14770045D01*
X8677393Y14775512D01*
X8677395Y14775517D01*
X8741647Y14964800D01*
X8743504Y14970270D01*
X8749278Y15010088D01*
X8773314Y15175860D01*
X8773314Y15175862D01*
X8773846Y15179530D01*
X8775429Y15240000D01*
X8756081Y15450560D01*
X8698686Y15654069D01*
X8688889Y15673937D01*
X8607719Y15838531D01*
X8605165Y15843710D01*
X8490661Y15997050D01*
X8482104Y16008509D01*
X8482103Y16008510D01*
X8478651Y16013133D01*
X8378286Y16105910D01*
X8327622Y16152743D01*
X8327620Y16152745D01*
X8323381Y16156663D01*
X8300734Y16170952D01*
X8149434Y16266416D01*
X8149433Y16266416D01*
X8144554Y16269495D01*
X7948160Y16347848D01*
X7942503Y16348973D01*
X7942497Y16348975D01*
X7745234Y16388212D01*
X7682324Y16421119D01*
X7647192Y16482814D01*
X7650992Y16553709D01*
X7692517Y16611295D01*
X7751734Y16636487D01*
X7884015Y16655667D01*
X7884019Y16655668D01*
X7889730Y16656496D01*
X7997000Y16692909D01*
X8084483Y16722605D01*
X8084488Y16722607D01*
X8089955Y16724463D01*
X8094998Y16727287D01*
X8269395Y16824954D01*
X8269399Y16824957D01*
X8274442Y16827781D01*
X8437012Y16962988D01*
X8572219Y17125558D01*
X8575043Y17130601D01*
X8575046Y17130605D01*
X8672713Y17305002D01*
X8672714Y17305004D01*
X8675537Y17310045D01*
X8677394Y17315516D01*
X8677395Y17315518D01*
X8677728Y17316499D01*
X8678011Y17316901D01*
X8679744Y17320794D01*
X8680509Y17320453D01*
X8718570Y17374572D01*
X8784325Y17401345D01*
X8854116Y17388318D01*
G37*
G04 #@! TD.AperFunction*
G04 #@! TA.AperFunction,Conductor*
G36*
X26830984Y22355277D02*
G01*
X26848745Y22340510D01*
X27676895Y21512360D01*
X27710921Y21450048D01*
X27713800Y21423265D01*
X27713800Y19945410D01*
X27712927Y19930602D01*
X27709192Y19899045D01*
X27710884Y19889783D01*
X27710884Y19889774D01*
X27719163Y19844448D01*
X27719814Y19840540D01*
X27728056Y19785716D01*
X27731016Y19779552D01*
X27732245Y19772823D01*
X27757822Y19723585D01*
X27759579Y19720069D01*
X27779520Y19678541D01*
X27779522Y19678537D01*
X27783598Y19670050D01*
X27788241Y19665028D01*
X27791393Y19658959D01*
X27795474Y19654181D01*
X27830649Y19619006D01*
X27834078Y19615441D01*
X27870695Y19575829D01*
X27876787Y19572290D01*
X27882324Y19567331D01*
X28545094Y18904561D01*
X28579120Y18842249D01*
X28574055Y18771434D01*
X28531109Y18714913D01*
X28530856Y18714762D01*
X28371881Y18575345D01*
X28240976Y18409292D01*
X28238287Y18404181D01*
X28238285Y18404178D01*
X28188400Y18309362D01*
X28142523Y18222164D01*
X28079820Y18020227D01*
X28054967Y17810246D01*
X28068796Y17599251D01*
X28070217Y17593655D01*
X28070218Y17593650D01*
X28119058Y17401345D01*
X28120845Y17394310D01*
X28123262Y17389067D01*
X28166802Y17294621D01*
X28209369Y17202286D01*
X28331405Y17029609D01*
X28386653Y16975789D01*
X28463348Y16901076D01*
X28482865Y16882063D01*
X28487661Y16878858D01*
X28487664Y16878856D01*
X28594928Y16807185D01*
X28658677Y16764589D01*
X28663985Y16762308D01*
X28663986Y16762308D01*
X28847650Y16683400D01*
X28847653Y16683399D01*
X28852953Y16681122D01*
X28858582Y16679848D01*
X28858583Y16679848D01*
X29053550Y16635731D01*
X29053553Y16635731D01*
X29059186Y16634456D01*
X29064958Y16634229D01*
X29070687Y16633475D01*
X29070327Y16630743D01*
X29126604Y16611784D01*
X29170950Y16556341D01*
X29178282Y16485724D01*
X29146271Y16422353D01*
X29085081Y16386349D01*
X29075704Y16384368D01*
X28916650Y16357038D01*
X28916649Y16357038D01*
X28910953Y16356059D01*
X28712575Y16282873D01*
X28707614Y16279921D01*
X28707613Y16279921D01*
X28567462Y16196540D01*
X28530856Y16174762D01*
X28371881Y16035345D01*
X28240976Y15869292D01*
X28238287Y15864181D01*
X28238285Y15864178D01*
X28200124Y15791646D01*
X28142523Y15682164D01*
X28079820Y15480227D01*
X28054967Y15270246D01*
X28068796Y15059251D01*
X28070217Y15053655D01*
X28070218Y15053650D01*
X28105243Y14915743D01*
X28120845Y14854310D01*
X28123262Y14849067D01*
X28139751Y14813300D01*
X28209369Y14662286D01*
X28331405Y14489609D01*
X28335539Y14485582D01*
X28431109Y14392482D01*
X28482865Y14342063D01*
X28487661Y14338858D01*
X28487664Y14338856D01*
X28569825Y14283958D01*
X28658677Y14224589D01*
X28663985Y14222308D01*
X28663986Y14222308D01*
X28780940Y14172061D01*
X28835634Y14126793D01*
X28857171Y14059142D01*
X28838714Y13990586D01*
X28786123Y13942892D01*
X28771318Y13937380D01*
X28771413Y13937119D01*
X28755947Y13931490D01*
X28558489Y13839414D01*
X28548993Y13833931D01*
X28370533Y13708972D01*
X28362125Y13701916D01*
X28208084Y13547875D01*
X28201028Y13539467D01*
X28076069Y13361007D01*
X28070586Y13351511D01*
X27978510Y13154053D01*
X27974764Y13143761D01*
X27928606Y12971497D01*
X27928942Y12957401D01*
X27936884Y12954000D01*
X30477967Y12954000D01*
X30491498Y12957973D01*
X30492727Y12966522D01*
X30445236Y13143761D01*
X30441490Y13154053D01*
X30349414Y13351511D01*
X30343931Y13361007D01*
X30218972Y13539467D01*
X30211916Y13547875D01*
X30057875Y13701916D01*
X30049467Y13708972D01*
X29871007Y13833931D01*
X29861511Y13839414D01*
X29664050Y13931491D01*
X29648783Y13937048D01*
X29591611Y13979142D01*
X29566273Y14045463D01*
X29580814Y14114955D01*
X29630616Y14165554D01*
X29651368Y14174759D01*
X29679955Y14184463D01*
X29688214Y14189088D01*
X29859395Y14284954D01*
X29859399Y14284957D01*
X29864442Y14287781D01*
X30027012Y14422988D01*
X30162219Y14585558D01*
X30165043Y14590601D01*
X30165046Y14590605D01*
X30262713Y14765002D01*
X30262714Y14765004D01*
X30265537Y14770045D01*
X30267393Y14775512D01*
X30267395Y14775517D01*
X30331647Y14964800D01*
X30333504Y14970270D01*
X30339278Y15010088D01*
X30363314Y15175860D01*
X30363314Y15175862D01*
X30363846Y15179530D01*
X30365429Y15240000D01*
X30346081Y15450560D01*
X30288686Y15654069D01*
X30278889Y15673937D01*
X30197719Y15838531D01*
X30195165Y15843710D01*
X30080661Y15997050D01*
X30072104Y16008509D01*
X30072103Y16008510D01*
X30068651Y16013133D01*
X29968286Y16105910D01*
X29917622Y16152743D01*
X29917620Y16152745D01*
X29913381Y16156663D01*
X29890734Y16170952D01*
X29739434Y16266416D01*
X29739433Y16266416D01*
X29734554Y16269495D01*
X29538160Y16347848D01*
X29532503Y16348973D01*
X29532497Y16348975D01*
X29335234Y16388212D01*
X29272324Y16421119D01*
X29237192Y16482814D01*
X29240992Y16553709D01*
X29282517Y16611295D01*
X29341734Y16636487D01*
X29474015Y16655667D01*
X29474019Y16655668D01*
X29479730Y16656496D01*
X29587000Y16692909D01*
X29674483Y16722605D01*
X29674488Y16722607D01*
X29679955Y16724463D01*
X29684998Y16727287D01*
X29859395Y16824954D01*
X29859399Y16824957D01*
X29864442Y16827781D01*
X30027012Y16962988D01*
X30162219Y17125558D01*
X30165043Y17130601D01*
X30165046Y17130605D01*
X30262713Y17305002D01*
X30262714Y17305004D01*
X30265537Y17310045D01*
X30267393Y17315512D01*
X30267395Y17315517D01*
X30331222Y17503548D01*
X30333504Y17510270D01*
X30341829Y17567680D01*
X30363314Y17715860D01*
X30363314Y17715862D01*
X30363846Y17719530D01*
X30365429Y17780000D01*
X30346081Y17990560D01*
X30333898Y18033760D01*
X30309151Y18121505D01*
X30288686Y18194069D01*
X30282458Y18206700D01*
X30224220Y18324793D01*
X30218510Y18336371D01*
X30206320Y18406314D01*
X30233879Y18471743D01*
X30292437Y18511887D01*
X30331516Y18518100D01*
X42421265Y18518100D01*
X42489386Y18498098D01*
X42510360Y18481195D01*
X42957795Y18033760D01*
X42991821Y17971448D01*
X42994700Y17944665D01*
X42994700Y16301410D01*
X42993827Y16286602D01*
X42990092Y16255045D01*
X42991784Y16245783D01*
X42991784Y16245774D01*
X43000063Y16200448D01*
X43000714Y16196540D01*
X43008956Y16141716D01*
X43011916Y16135552D01*
X43013145Y16128823D01*
X43038722Y16079585D01*
X43040479Y16076069D01*
X43060420Y16034541D01*
X43060422Y16034537D01*
X43064498Y16026050D01*
X43069141Y16021028D01*
X43072293Y16014959D01*
X43076374Y16010181D01*
X43111549Y15975006D01*
X43114978Y15971441D01*
X43151595Y15931829D01*
X43157687Y15928290D01*
X43163224Y15923331D01*
X43333905Y15752650D01*
X43367931Y15690338D01*
X43365143Y15626191D01*
X43341747Y15550842D01*
X43319820Y15480227D01*
X43294967Y15270246D01*
X43308796Y15059251D01*
X43310217Y15053655D01*
X43310218Y15053650D01*
X43345243Y14915743D01*
X43360845Y14854310D01*
X43363262Y14849067D01*
X43379751Y14813300D01*
X43449369Y14662286D01*
X43571405Y14489609D01*
X43575539Y14485582D01*
X43671109Y14392482D01*
X43722865Y14342063D01*
X43727661Y14338858D01*
X43727664Y14338856D01*
X43781695Y14302754D01*
X43827223Y14248277D01*
X43836071Y14177834D01*
X43800788Y14108894D01*
X43142878Y13450984D01*
X43131788Y13441129D01*
X43114234Y13427291D01*
X43114230Y13427287D01*
X43106835Y13421457D01*
X43075243Y13375746D01*
X43073010Y13372623D01*
X43040038Y13327982D01*
X43037773Y13321532D01*
X43033883Y13315904D01*
X43031045Y13306929D01*
X43031042Y13306924D01*
X43017156Y13263015D01*
X43015903Y13259258D01*
X43000643Y13215806D01*
X43000642Y13215803D01*
X42997523Y13206920D01*
X42997254Y13200084D01*
X42995193Y13193566D01*
X42994700Y13187302D01*
X42994700Y13137541D01*
X42994603Y13132595D01*
X42992486Y13078709D01*
X42994292Y13071898D01*
X42994700Y13064483D01*
X42994700Y12535335D01*
X42974698Y12467214D01*
X42957795Y12446240D01*
X42619960Y12108405D01*
X42557648Y12074379D01*
X42530865Y12071500D01*
X30557925Y12071500D01*
X30489804Y12091502D01*
X30443311Y12145158D01*
X30433207Y12215432D01*
X30440619Y12240406D01*
X30439607Y12240774D01*
X30445236Y12256239D01*
X30491394Y12428503D01*
X30491058Y12442599D01*
X30483116Y12446000D01*
X27942033Y12446000D01*
X27928502Y12442027D01*
X27927273Y12433478D01*
X27974764Y12256239D01*
X27980393Y12240774D01*
X27977972Y12239893D01*
X27986894Y12180289D01*
X27957775Y12115539D01*
X27898271Y12076811D01*
X27862075Y12071500D01*
X27573135Y12071500D01*
X27505014Y12091502D01*
X27484040Y12108405D01*
X26947605Y12644840D01*
X26913579Y12707152D01*
X26910700Y12733935D01*
X26910700Y15721698D01*
X26911573Y15736508D01*
X26914200Y15758703D01*
X26915307Y15768055D01*
X26910999Y15791646D01*
X26905342Y15822622D01*
X26904692Y15826525D01*
X26897844Y15872075D01*
X26897843Y15872078D01*
X26896444Y15881384D01*
X26893484Y15887549D01*
X26892255Y15894277D01*
X26866678Y15943515D01*
X26864921Y15947031D01*
X26844980Y15988559D01*
X26844978Y15988563D01*
X26840902Y15997050D01*
X26836259Y16002072D01*
X26833107Y16008141D01*
X26829026Y16012919D01*
X26793851Y16048094D01*
X26790421Y16051660D01*
X26753805Y16091271D01*
X26747713Y16094810D01*
X26742176Y16099769D01*
X26167887Y16674058D01*
X26133861Y16736370D01*
X26138926Y16807185D01*
X26176413Y16860027D01*
X26253081Y16923791D01*
X26253086Y16923796D01*
X26257518Y16927482D01*
X26322225Y17005283D01*
X26394908Y17092674D01*
X26394910Y17092677D01*
X26398602Y17097116D01*
X26506410Y17289621D01*
X26508266Y17295088D01*
X26508268Y17295093D01*
X26575475Y17493079D01*
X26575476Y17493084D01*
X26577331Y17498548D01*
X26578159Y17504257D01*
X26578160Y17504262D01*
X26608458Y17713228D01*
X26608991Y17716902D01*
X26610643Y17780000D01*
X26590454Y17999711D01*
X26584802Y18019754D01*
X26556105Y18121505D01*
X26530565Y18212064D01*
X26432980Y18409947D01*
X26420858Y18426181D01*
X26304420Y18582109D01*
X26304420Y18582110D01*
X26300967Y18586733D01*
X26178232Y18700188D01*
X26143189Y18732582D01*
X26143186Y18732584D01*
X26138949Y18736501D01*
X25952350Y18854236D01*
X25749955Y18934983D01*
X25694096Y18978804D01*
X25670795Y19045868D01*
X25687451Y19114883D01*
X25738775Y19163937D01*
X25756144Y19171326D01*
X25889907Y19216732D01*
X25889912Y19216734D01*
X25895379Y19218590D01*
X25903506Y19223141D01*
X26049059Y19304655D01*
X26087884Y19326398D01*
X26127351Y19359222D01*
X26253086Y19463796D01*
X26257518Y19467482D01*
X26305150Y19524753D01*
X26394908Y19632674D01*
X26394910Y19632677D01*
X26398602Y19637116D01*
X26487038Y19795030D01*
X26503586Y19824578D01*
X26503587Y19824580D01*
X26506410Y19829621D01*
X26508266Y19835088D01*
X26508268Y19835093D01*
X26575475Y20033079D01*
X26575476Y20033084D01*
X26577331Y20038548D01*
X26578159Y20044257D01*
X26578160Y20044262D01*
X26608458Y20253228D01*
X26608991Y20256902D01*
X26610643Y20320000D01*
X26590454Y20539711D01*
X26530565Y20752064D01*
X26432980Y20949947D01*
X26407808Y20983657D01*
X26304420Y21122109D01*
X26304420Y21122110D01*
X26300967Y21126733D01*
X26186286Y21232743D01*
X26143189Y21272582D01*
X26143186Y21272584D01*
X26138949Y21276501D01*
X25953702Y21393383D01*
X25953700Y21393385D01*
X25952350Y21394236D01*
X25952517Y21394501D01*
X25903071Y21441198D01*
X25886002Y21510112D01*
X25908901Y21577314D01*
X25956454Y21617871D01*
X26098095Y21687261D01*
X26106945Y21692536D01*
X26280328Y21816208D01*
X26288200Y21822861D01*
X26439052Y21973188D01*
X26445730Y21981035D01*
X26570003Y22153980D01*
X26575313Y22162817D01*
X26646693Y22307242D01*
X26694807Y22359449D01*
X26763508Y22377356D01*
X26830984Y22355277D01*
G37*
G04 #@! TD.AperFunction*
G04 #@! TA.AperFunction,Conductor*
G36*
X20337734Y26883698D02*
G01*
X20358708Y26866795D01*
X21367795Y25857708D01*
X21401821Y25795396D01*
X21404700Y25768613D01*
X21404700Y23921410D01*
X21403827Y23906602D01*
X21400092Y23875045D01*
X21401784Y23865783D01*
X21401784Y23865774D01*
X21410063Y23820448D01*
X21410714Y23816540D01*
X21418956Y23761716D01*
X21421916Y23755552D01*
X21423145Y23748823D01*
X21448722Y23699585D01*
X21450479Y23696069D01*
X21470420Y23654541D01*
X21470422Y23654537D01*
X21474498Y23646050D01*
X21479141Y23641028D01*
X21482293Y23634959D01*
X21486374Y23630181D01*
X21521549Y23595006D01*
X21524978Y23591441D01*
X21561595Y23551829D01*
X21567687Y23548290D01*
X21573224Y23543331D01*
X21743905Y23372650D01*
X21777931Y23310338D01*
X21775143Y23246191D01*
X21729820Y23100227D01*
X21704967Y22890246D01*
X21718796Y22679251D01*
X21720217Y22673655D01*
X21720218Y22673650D01*
X21763534Y22503098D01*
X21770845Y22474310D01*
X21859369Y22282286D01*
X21981405Y22109609D01*
X22132865Y21962063D01*
X22137661Y21958858D01*
X22137664Y21958856D01*
X22240216Y21890333D01*
X22308677Y21844589D01*
X22313985Y21842308D01*
X22313986Y21842308D01*
X22497650Y21763400D01*
X22497653Y21763399D01*
X22502953Y21761122D01*
X22508582Y21759848D01*
X22508583Y21759848D01*
X22703550Y21715731D01*
X22703553Y21715731D01*
X22709186Y21714456D01*
X22714958Y21714229D01*
X22720687Y21713475D01*
X22720327Y21710743D01*
X22776604Y21691784D01*
X22820950Y21636341D01*
X22828282Y21565724D01*
X22796271Y21502353D01*
X22735081Y21466349D01*
X22725704Y21464368D01*
X22566650Y21437038D01*
X22566649Y21437038D01*
X22560953Y21436059D01*
X22362575Y21362873D01*
X22357614Y21359921D01*
X22357613Y21359921D01*
X22222577Y21279583D01*
X22180856Y21254762D01*
X22021881Y21115345D01*
X21890976Y20949292D01*
X21888287Y20944181D01*
X21888285Y20944178D01*
X21861986Y20894191D01*
X21792523Y20762164D01*
X21729820Y20560227D01*
X21704967Y20350246D01*
X21718796Y20139251D01*
X21720217Y20133655D01*
X21720218Y20133650D01*
X21768026Y19945410D01*
X21770845Y19934310D01*
X21773262Y19929067D01*
X21819107Y19829621D01*
X21859369Y19742286D01*
X21981405Y19569609D01*
X22132865Y19422063D01*
X22137661Y19418858D01*
X22137669Y19418852D01*
X22150129Y19410527D01*
X22195657Y19356051D01*
X22204506Y19285608D01*
X22169224Y19216668D01*
X21205469Y18252914D01*
X21194388Y18243068D01*
X21176834Y18229230D01*
X21176830Y18229226D01*
X21169435Y18223396D01*
X21137843Y18177685D01*
X21135610Y18174562D01*
X21102638Y18129921D01*
X21100373Y18123471D01*
X21096483Y18117843D01*
X21093645Y18108868D01*
X21093642Y18108863D01*
X21079756Y18064954D01*
X21078503Y18061197D01*
X21063243Y18017745D01*
X21063242Y18017742D01*
X21060123Y18008859D01*
X21059854Y18002023D01*
X21057793Y17995505D01*
X21057300Y17989241D01*
X21057300Y17989034D01*
X21024742Y17926193D01*
X20963186Y17890818D01*
X20892277Y17894339D01*
X20834528Y17935638D01*
X20815861Y17968788D01*
X20774725Y18077651D01*
X20772041Y18084754D01*
X20696911Y18194069D01*
X20686822Y18208749D01*
X20686821Y18208751D01*
X20682520Y18215008D01*
X20676748Y18220151D01*
X20570184Y18315097D01*
X20570180Y18315100D01*
X20564513Y18320149D01*
X20557805Y18323701D01*
X20557803Y18323702D01*
X20431542Y18390553D01*
X20431541Y18390554D01*
X20424833Y18394105D01*
X20271544Y18432609D01*
X20263946Y18432649D01*
X20263944Y18432649D01*
X20192520Y18433023D01*
X20113495Y18433437D01*
X20106108Y18431663D01*
X20106104Y18431663D01*
X19972173Y18399508D01*
X19959811Y18396540D01*
X19953067Y18393059D01*
X19953064Y18393058D01*
X19826112Y18327533D01*
X19819364Y18324050D01*
X19813642Y18319058D01*
X19813640Y18319057D01*
X19720437Y18237751D01*
X19655955Y18208043D01*
X19637608Y18206700D01*
X9734648Y18206700D01*
X9666527Y18226702D01*
X9645553Y18243605D01*
X8497236Y19391922D01*
X8487375Y19403019D01*
X8485570Y19405309D01*
X8459110Y19471190D01*
X8472469Y19540919D01*
X8487649Y19563872D01*
X8572219Y19665558D01*
X8575043Y19670601D01*
X8575046Y19670605D01*
X8672713Y19845002D01*
X8672714Y19845004D01*
X8675537Y19850045D01*
X8677393Y19855512D01*
X8677395Y19855517D01*
X8739525Y20038548D01*
X8743504Y20050270D01*
X8745083Y20061155D01*
X8773314Y20255860D01*
X8773314Y20255862D01*
X8773846Y20259530D01*
X8775429Y20320000D01*
X8756081Y20530560D01*
X8698686Y20734069D01*
X8690700Y20750264D01*
X8607719Y20918531D01*
X8605165Y20923710D01*
X8498067Y21067132D01*
X8482104Y21088509D01*
X8482103Y21088510D01*
X8478651Y21093133D01*
X8323381Y21236663D01*
X8318498Y21239744D01*
X8318494Y21239747D01*
X8285271Y21260709D01*
X8238333Y21313975D01*
X8227643Y21384163D01*
X8256597Y21448987D01*
X8280933Y21470811D01*
X8288611Y21474498D01*
X8293633Y21479141D01*
X8299702Y21482293D01*
X8304480Y21486374D01*
X8339654Y21521548D01*
X8343220Y21524978D01*
X8375917Y21555203D01*
X8382832Y21561595D01*
X8386371Y21567687D01*
X8391325Y21573219D01*
X8927125Y22109020D01*
X8938216Y22118875D01*
X8955762Y22132707D01*
X8963165Y22138543D01*
X8994754Y22184249D01*
X8996960Y22187337D01*
X9029963Y22232018D01*
X9032229Y22238470D01*
X9036117Y22244096D01*
X9042201Y22263332D01*
X9052848Y22297000D01*
X9054102Y22300758D01*
X9056380Y22307242D01*
X9072477Y22353080D01*
X9072746Y22359916D01*
X9074807Y22366434D01*
X9075300Y22372698D01*
X9075300Y22422459D01*
X9075397Y22427405D01*
X9075768Y22436852D01*
X9077514Y22481291D01*
X9075708Y22488102D01*
X9075300Y22495517D01*
X9075300Y23896872D01*
X9095302Y23964993D01*
X9112205Y23985967D01*
X10309222Y25182984D01*
X10320312Y25192839D01*
X10337866Y25206677D01*
X10337870Y25206681D01*
X10345265Y25212511D01*
X10376807Y25258149D01*
X10379102Y25261361D01*
X10406468Y25298410D01*
X10406470Y25298414D01*
X10412063Y25305986D01*
X10414329Y25312438D01*
X10418217Y25318064D01*
X10434948Y25370968D01*
X10436202Y25374726D01*
X10451457Y25418164D01*
X10454577Y25427048D01*
X10454846Y25433884D01*
X10456907Y25440402D01*
X10457400Y25446666D01*
X10457400Y25496427D01*
X10457497Y25501373D01*
X10459244Y25545846D01*
X10459614Y25555259D01*
X10457808Y25562070D01*
X10457400Y25569485D01*
X10457400Y26221890D01*
X10477402Y26290011D01*
X10531058Y26336504D01*
X10601332Y26346608D01*
X10643521Y26332621D01*
X10679849Y26312897D01*
X10832727Y26272790D01*
X10920972Y26271403D01*
X10983164Y26270426D01*
X10983167Y26270426D01*
X10990758Y26270307D01*
X10991486Y26270474D01*
X11038584Y26265719D01*
X11040056Y26265254D01*
X11043798Y26264006D01*
X11096141Y26245624D01*
X11102973Y26245356D01*
X11109495Y26243293D01*
X11115759Y26242800D01*
X11165530Y26242800D01*
X11170476Y26242703D01*
X11224352Y26240586D01*
X11231163Y26242392D01*
X11238577Y26242800D01*
X11871179Y26242800D01*
X11885987Y26241927D01*
X11917544Y26238192D01*
X11926806Y26239884D01*
X11926815Y26239884D01*
X11972141Y26248163D01*
X11976049Y26248814D01*
X11978078Y26249119D01*
X12030873Y26257056D01*
X12037037Y26260016D01*
X12043766Y26261245D01*
X12093004Y26286822D01*
X12096520Y26288579D01*
X12138048Y26308520D01*
X12138052Y26308522D01*
X12146539Y26312598D01*
X12151561Y26317241D01*
X12157630Y26320393D01*
X12162408Y26324474D01*
X12197582Y26359648D01*
X12201148Y26363078D01*
X12233845Y26393303D01*
X12240760Y26399695D01*
X12244299Y26405787D01*
X12249253Y26411319D01*
X12475314Y26637380D01*
X12704728Y26866795D01*
X12767041Y26900820D01*
X12793824Y26903700D01*
X20269613Y26903700D01*
X20337734Y26883698D01*
G37*
G04 #@! TD.AperFunction*
G04 #@! TA.AperFunction,Conductor*
G36*
X43458032Y31303298D02*
G01*
X43504525Y31249642D01*
X43514629Y31179368D01*
X43488861Y31119294D01*
X43480976Y31109292D01*
X43478287Y31104181D01*
X43478285Y31104178D01*
X43432727Y31017586D01*
X43382523Y30922164D01*
X43319820Y30720227D01*
X43294967Y30510246D01*
X43308796Y30299251D01*
X43310217Y30293655D01*
X43310218Y30293650D01*
X43341276Y30171362D01*
X43360845Y30094310D01*
X43363260Y30089072D01*
X43363262Y30089067D01*
X43420169Y29965626D01*
X43449369Y29902286D01*
X43571405Y29729609D01*
X43575539Y29725582D01*
X43699361Y29604960D01*
X43722865Y29582063D01*
X43727661Y29578858D01*
X43727664Y29578856D01*
X43821937Y29515865D01*
X43898677Y29464589D01*
X43903985Y29462308D01*
X43903986Y29462308D01*
X44087650Y29383400D01*
X44087653Y29383399D01*
X44092953Y29381122D01*
X44098582Y29379848D01*
X44098583Y29379848D01*
X44293550Y29335731D01*
X44293553Y29335731D01*
X44299186Y29334456D01*
X44304958Y29334229D01*
X44310687Y29333475D01*
X44310327Y29330743D01*
X44366604Y29311784D01*
X44410950Y29256341D01*
X44418282Y29185724D01*
X44386271Y29122353D01*
X44325081Y29086349D01*
X44315704Y29084368D01*
X44156650Y29057038D01*
X44156649Y29057038D01*
X44150953Y29056059D01*
X43952575Y28982873D01*
X43947614Y28979921D01*
X43947613Y28979921D01*
X43812577Y28899583D01*
X43770856Y28874762D01*
X43611881Y28735345D01*
X43480976Y28569292D01*
X43478287Y28564181D01*
X43478285Y28564178D01*
X43457652Y28524960D01*
X43382523Y28382164D01*
X43319820Y28180227D01*
X43294967Y27970246D01*
X43308796Y27759251D01*
X43310217Y27753655D01*
X43310218Y27753650D01*
X43350791Y27593896D01*
X43360845Y27554310D01*
X43363262Y27549067D01*
X43420132Y27425707D01*
X43449369Y27362286D01*
X43571405Y27189609D01*
X43722865Y27042063D01*
X43727661Y27038858D01*
X43727664Y27038856D01*
X43816554Y26979462D01*
X43898677Y26924589D01*
X43903985Y26922308D01*
X43903986Y26922308D01*
X44020940Y26872061D01*
X44075634Y26826793D01*
X44097171Y26759142D01*
X44078714Y26690586D01*
X44026123Y26642892D01*
X44011318Y26637380D01*
X44011413Y26637119D01*
X43995947Y26631490D01*
X43798489Y26539414D01*
X43788993Y26533931D01*
X43610533Y26408972D01*
X43602125Y26401916D01*
X43448084Y26247875D01*
X43441028Y26239467D01*
X43316069Y26061007D01*
X43310586Y26051511D01*
X43218510Y25854053D01*
X43214764Y25843761D01*
X43168606Y25671497D01*
X43168942Y25657401D01*
X43176884Y25654000D01*
X44578000Y25654000D01*
X44646121Y25633998D01*
X44692614Y25580342D01*
X44704000Y25528000D01*
X44704000Y25272000D01*
X44683998Y25203879D01*
X44630342Y25157386D01*
X44578000Y25146000D01*
X43182033Y25146000D01*
X43168502Y25142027D01*
X43167273Y25133478D01*
X43214764Y24956239D01*
X43218510Y24945947D01*
X43310586Y24748489D01*
X43316069Y24738993D01*
X43441028Y24560533D01*
X43448084Y24552125D01*
X43602125Y24398084D01*
X43610533Y24391028D01*
X43788993Y24266069D01*
X43798489Y24260586D01*
X43995947Y24168510D01*
X44011413Y24162881D01*
X44010733Y24161012D01*
X44063897Y24128613D01*
X44094924Y24064755D01*
X44086501Y23994260D01*
X44041303Y23939509D01*
X44014282Y23925638D01*
X43952575Y23902873D01*
X43947614Y23899921D01*
X43947613Y23899921D01*
X43779770Y23800065D01*
X43770856Y23794762D01*
X43611881Y23655345D01*
X43480976Y23489292D01*
X43478288Y23484183D01*
X43478285Y23484178D01*
X43460847Y23451033D01*
X43382523Y23302164D01*
X43319820Y23100227D01*
X43294967Y22890246D01*
X43308796Y22679251D01*
X43310217Y22673655D01*
X43310218Y22673650D01*
X43353534Y22503098D01*
X43360845Y22474310D01*
X43449369Y22282286D01*
X43571405Y22109609D01*
X43722865Y21962063D01*
X43727661Y21958858D01*
X43727664Y21958856D01*
X43830216Y21890333D01*
X43898677Y21844589D01*
X43903977Y21842312D01*
X43903988Y21842306D01*
X43950293Y21822412D01*
X44004985Y21777144D01*
X44024503Y21729285D01*
X44028663Y21706510D01*
X44029314Y21702601D01*
X44037556Y21647777D01*
X44040516Y21641613D01*
X44041745Y21634884D01*
X44067322Y21585646D01*
X44069078Y21582131D01*
X44081046Y21557208D01*
X44092503Y21487142D01*
X44064261Y21422005D01*
X44011074Y21384454D01*
X43952575Y21362873D01*
X43947614Y21359921D01*
X43947613Y21359921D01*
X43812577Y21279583D01*
X43770856Y21254762D01*
X43611881Y21115345D01*
X43480976Y20949292D01*
X43478287Y20944181D01*
X43478285Y20944178D01*
X43451986Y20894191D01*
X43382523Y20762164D01*
X43319820Y20560227D01*
X43294967Y20350246D01*
X43308796Y20139251D01*
X43310217Y20133655D01*
X43310218Y20133650D01*
X43358026Y19945410D01*
X43360845Y19934310D01*
X43363262Y19929067D01*
X43397199Y19855451D01*
X43407554Y19785213D01*
X43378291Y19720528D01*
X43318702Y19681931D01*
X43282773Y19676700D01*
X31397935Y19676700D01*
X31329814Y19696702D01*
X31308840Y19713605D01*
X30702205Y20320240D01*
X30668179Y20382552D01*
X30665300Y20409335D01*
X30665300Y20713250D01*
X30666173Y20728061D01*
X30669908Y20759615D01*
X30659940Y20814196D01*
X30659290Y20818099D01*
X30652444Y20863634D01*
X30652444Y20863635D01*
X30651044Y20872945D01*
X30648084Y20879109D01*
X30646855Y20885838D01*
X30621278Y20935076D01*
X30619521Y20938592D01*
X30599580Y20980120D01*
X30599578Y20980124D01*
X30595502Y20988611D01*
X30590859Y20993633D01*
X30587707Y20999702D01*
X30583626Y21004479D01*
X30548463Y21039642D01*
X30545033Y21043208D01*
X30514796Y21075918D01*
X30508405Y21082832D01*
X30502312Y21086371D01*
X30496770Y21091335D01*
X29861581Y21726524D01*
X29827555Y21788836D01*
X29832620Y21859651D01*
X29870104Y21912490D01*
X30027012Y22042988D01*
X30162219Y22205558D01*
X30165043Y22210601D01*
X30165046Y22210605D01*
X30262713Y22385002D01*
X30262714Y22385004D01*
X30265537Y22390045D01*
X30267393Y22395512D01*
X30267395Y22395517D01*
X30331647Y22584800D01*
X30333504Y22590270D01*
X30334577Y22597665D01*
X30363314Y22795860D01*
X30363314Y22795862D01*
X30363846Y22799530D01*
X30365429Y22860000D01*
X30346081Y23070560D01*
X30288686Y23274069D01*
X30282458Y23286700D01*
X30197719Y23458531D01*
X30195165Y23463710D01*
X30090861Y23603390D01*
X30066129Y23669940D01*
X30081303Y23739296D01*
X30106289Y23771303D01*
X30129323Y23792595D01*
X30132862Y23798687D01*
X30137816Y23804219D01*
X30493231Y24159634D01*
X30850725Y24517129D01*
X30861816Y24526984D01*
X30879362Y24540816D01*
X30886765Y24546652D01*
X30918354Y24592358D01*
X30920560Y24595446D01*
X30953563Y24640127D01*
X30955829Y24646579D01*
X30959717Y24652205D01*
X30972272Y24691903D01*
X30976448Y24705109D01*
X30977702Y24708867D01*
X30981997Y24721095D01*
X30996077Y24761189D01*
X30996346Y24768025D01*
X30998407Y24774543D01*
X30998900Y24780807D01*
X30998900Y24830568D01*
X30998997Y24835514D01*
X30999517Y24848746D01*
X31001114Y24889400D01*
X30999308Y24896211D01*
X30998900Y24903626D01*
X30998900Y27549265D01*
X31018902Y27617386D01*
X31035805Y27638360D01*
X34683840Y31286395D01*
X34746152Y31320421D01*
X34772935Y31323300D01*
X43389911Y31323300D01*
X43458032Y31303298D01*
G37*
G04 #@! TD.AperFunction*
G04 #@! TA.AperFunction,Conductor*
G36*
X24098347Y22421910D02*
G01*
X24138505Y22369260D01*
X24186770Y22250397D01*
X24191413Y22241206D01*
X24302694Y22059612D01*
X24308777Y22051301D01*
X24448213Y21890333D01*
X24455580Y21883117D01*
X24619434Y21747084D01*
X24627881Y21741169D01*
X24811756Y21633721D01*
X24821043Y21629271D01*
X24843682Y21620626D01*
X24900186Y21577638D01*
X24924478Y21510927D01*
X24908847Y21441672D01*
X24863156Y21394631D01*
X24782114Y21346416D01*
X24696341Y21295386D01*
X24530457Y21149910D01*
X24393863Y20976640D01*
X24291131Y20781380D01*
X24225703Y20570667D01*
X24223168Y20571454D01*
X24194767Y20518884D01*
X24132607Y20484580D01*
X24061770Y20489329D01*
X24004744Y20531621D01*
X23984005Y20573379D01*
X23976008Y20601735D01*
X23938686Y20734069D01*
X23930700Y20750264D01*
X23847719Y20918531D01*
X23845165Y20923710D01*
X23738067Y21067132D01*
X23722104Y21088509D01*
X23722103Y21088510D01*
X23718651Y21093133D01*
X23563381Y21236663D01*
X23470311Y21295386D01*
X23389434Y21346416D01*
X23389433Y21346416D01*
X23384554Y21349495D01*
X23188160Y21427848D01*
X23182503Y21428973D01*
X23182497Y21428975D01*
X22985234Y21468212D01*
X22922324Y21501119D01*
X22887192Y21562814D01*
X22890992Y21633709D01*
X22932517Y21691295D01*
X22991734Y21716487D01*
X23124015Y21735667D01*
X23124019Y21735668D01*
X23129730Y21736496D01*
X23249476Y21777144D01*
X23324483Y21802605D01*
X23324488Y21802607D01*
X23329955Y21804463D01*
X23334998Y21807287D01*
X23509395Y21904954D01*
X23509399Y21904957D01*
X23514442Y21907781D01*
X23677012Y22042988D01*
X23812219Y22205558D01*
X23815043Y22210601D01*
X23815046Y22210605D01*
X23911828Y22383422D01*
X23962565Y22433084D01*
X24032096Y22447431D01*
X24098347Y22421910D01*
G37*
G04 #@! TD.AperFunction*
G04 #@! TA.AperFunction,Conductor*
G36*
X18599004Y31499898D02*
G01*
X18645497Y31446242D01*
X18655601Y31375968D01*
X18633971Y31321451D01*
X18622453Y31305062D01*
X18618082Y31298842D01*
X18560670Y31151587D01*
X18559679Y31144058D01*
X18543943Y31024532D01*
X18540040Y30994888D01*
X18546073Y30940242D01*
X18554737Y30861770D01*
X18557384Y30837792D01*
X18559994Y30830661D01*
X18559994Y30830659D01*
X18564718Y30817750D01*
X18611699Y30689367D01*
X18615936Y30683061D01*
X18615938Y30683058D01*
X18634740Y30655079D01*
X18699852Y30558183D01*
X18816751Y30451812D01*
X18823424Y30448189D01*
X18823428Y30448186D01*
X18887814Y30413228D01*
X18955649Y30376397D01*
X19108527Y30336290D01*
X19191877Y30334980D01*
X19258961Y30333926D01*
X19258964Y30333926D01*
X19266558Y30333807D01*
X19420620Y30369092D01*
X19561819Y30440108D01*
X19682002Y30542754D01*
X19774231Y30671104D01*
X19833182Y30817750D01*
X19855452Y30974224D01*
X19855596Y30988000D01*
X19856757Y30987988D01*
X19871828Y31052168D01*
X19892313Y31079068D01*
X19985540Y31172295D01*
X20047852Y31206321D01*
X20074635Y31209200D01*
X21734874Y31209200D01*
X21802995Y31189198D01*
X21849488Y31135542D01*
X21859592Y31065268D01*
X21846383Y31024534D01*
X21792523Y30922164D01*
X21729820Y30720227D01*
X21704967Y30510246D01*
X21718796Y30299251D01*
X21720217Y30293655D01*
X21720218Y30293650D01*
X21751276Y30171362D01*
X21770845Y30094310D01*
X21805714Y30018673D01*
X21816069Y29948437D01*
X21786807Y29883751D01*
X21780383Y29876828D01*
X21221560Y29318005D01*
X21159248Y29283979D01*
X21132465Y29281100D01*
X10068055Y29281100D01*
X10053247Y29281973D01*
X10021690Y29285708D01*
X10012426Y29284016D01*
X10012425Y29284016D01*
X9967109Y29275740D01*
X9963206Y29275090D01*
X9917671Y29268244D01*
X9917670Y29268244D01*
X9908360Y29266844D01*
X9902196Y29263884D01*
X9895467Y29262655D01*
X9846229Y29237078D01*
X9842713Y29235321D01*
X9801185Y29215380D01*
X9801181Y29215378D01*
X9792694Y29211302D01*
X9787672Y29206659D01*
X9781603Y29203507D01*
X9776826Y29199427D01*
X9741650Y29164251D01*
X9738085Y29160822D01*
X9698473Y29124205D01*
X9694934Y29118113D01*
X9689975Y29112576D01*
X8899900Y28322501D01*
X8837588Y28288475D01*
X8766773Y28293540D01*
X8709937Y28336087D01*
X8697799Y28355868D01*
X8607721Y28538527D01*
X8605165Y28543710D01*
X8532997Y28640355D01*
X8485603Y28703824D01*
X8460871Y28770374D01*
X8476046Y28839730D01*
X8497466Y28868308D01*
X9231922Y29602764D01*
X9243012Y29612619D01*
X9260566Y29626457D01*
X9260570Y29626461D01*
X9267965Y29632291D01*
X9299507Y29677929D01*
X9301802Y29681141D01*
X9329168Y29718190D01*
X9329170Y29718194D01*
X9334763Y29725766D01*
X9337029Y29732218D01*
X9340917Y29737844D01*
X9357648Y29790748D01*
X9358902Y29794506D01*
X9374157Y29837944D01*
X9377277Y29846828D01*
X9377546Y29853664D01*
X9379607Y29860182D01*
X9380100Y29866446D01*
X9380100Y29916207D01*
X9380197Y29921153D01*
X9381944Y29965626D01*
X9382314Y29975039D01*
X9380508Y29981850D01*
X9380100Y29989265D01*
X9380100Y30949465D01*
X9400102Y31017586D01*
X9417005Y31038560D01*
X9861440Y31482995D01*
X9923752Y31517021D01*
X9950535Y31519900D01*
X18530883Y31519900D01*
X18599004Y31499898D01*
G37*
G04 #@! TD.AperFunction*
G04 #@! TA.AperFunction,Conductor*
G36*
X30311992Y39950563D02*
G01*
X30815481Y39447075D01*
X30825336Y39435984D01*
X30845004Y39411035D01*
X30890710Y39379446D01*
X30893798Y39377240D01*
X30938479Y39344237D01*
X30944931Y39341971D01*
X30950557Y39338083D01*
X30959534Y39335244D01*
X30959536Y39335243D01*
X31003461Y39321352D01*
X31007191Y39320107D01*
X31059541Y39301723D01*
X31066377Y39301454D01*
X31072895Y39299393D01*
X31079159Y39298900D01*
X31128920Y39298900D01*
X31133866Y39298803D01*
X31187752Y39296686D01*
X31194563Y39298492D01*
X31201978Y39298900D01*
X42608913Y39298900D01*
X42677034Y39278898D01*
X42698008Y39261995D01*
X42957795Y39002208D01*
X42991821Y38939896D01*
X42994700Y38913113D01*
X42994700Y35166749D01*
X42993827Y35151941D01*
X42990092Y35120384D01*
X42991784Y35111122D01*
X42991784Y35111113D01*
X43000063Y35065787D01*
X43000714Y35061879D01*
X43008956Y35007055D01*
X43011916Y35000891D01*
X43013145Y34994162D01*
X43038722Y34944924D01*
X43040479Y34941408D01*
X43060420Y34899880D01*
X43060422Y34899876D01*
X43064498Y34891389D01*
X43069141Y34886367D01*
X43072293Y34880298D01*
X43076374Y34875520D01*
X43111549Y34840345D01*
X43114978Y34836780D01*
X43151595Y34797168D01*
X43157687Y34793629D01*
X43163224Y34788670D01*
X43798176Y34153718D01*
X43832202Y34091406D01*
X43827137Y34020591D01*
X43784590Y33963755D01*
X43778799Y33959880D01*
X43775818Y33957714D01*
X43770856Y33954762D01*
X43611881Y33815345D01*
X43480976Y33649292D01*
X43478287Y33644181D01*
X43478285Y33644178D01*
X43433494Y33559043D01*
X43382523Y33462164D01*
X43319820Y33260227D01*
X43294967Y33050246D01*
X43308796Y32839251D01*
X43310217Y32833655D01*
X43310218Y32833650D01*
X43349724Y32678100D01*
X43360845Y32634310D01*
X43363262Y32629067D01*
X43409107Y32529621D01*
X43449369Y32442286D01*
X43452702Y32437570D01*
X43496625Y32375420D01*
X43519606Y32308246D01*
X43502621Y32239311D01*
X43451064Y32190501D01*
X43393728Y32176700D01*
X34576802Y32176700D01*
X34561992Y32177573D01*
X34544740Y32179615D01*
X34530445Y32181307D01*
X34521181Y32179615D01*
X34521178Y32179615D01*
X34475878Y32171342D01*
X34471975Y32170692D01*
X34426425Y32163844D01*
X34426422Y32163843D01*
X34417116Y32162444D01*
X34410951Y32159484D01*
X34404223Y32158255D01*
X34354985Y32132678D01*
X34351469Y32130921D01*
X34309941Y32110980D01*
X34309937Y32110978D01*
X34301450Y32106902D01*
X34296428Y32102259D01*
X34290359Y32099107D01*
X34285581Y32095026D01*
X34250406Y32059851D01*
X34246841Y32056422D01*
X34207229Y32019805D01*
X34203690Y32013713D01*
X34198731Y32008176D01*
X30909195Y28718640D01*
X30846883Y28684614D01*
X30776068Y28689679D01*
X30719232Y28732226D01*
X30694421Y28798746D01*
X30694100Y28807735D01*
X30694100Y33403497D01*
X30694973Y33418306D01*
X30696010Y33427072D01*
X30698707Y33449855D01*
X30695525Y33467280D01*
X30688742Y33504422D01*
X30688092Y33508325D01*
X30681244Y33553875D01*
X30681243Y33553878D01*
X30679844Y33563184D01*
X30676884Y33569349D01*
X30675655Y33576077D01*
X30650078Y33625315D01*
X30648321Y33628831D01*
X30628380Y33670359D01*
X30628378Y33670363D01*
X30624302Y33678850D01*
X30619659Y33683872D01*
X30616507Y33689941D01*
X30612426Y33694719D01*
X30577251Y33729894D01*
X30573821Y33733460D01*
X30543597Y33766156D01*
X30543598Y33766156D01*
X30537205Y33773071D01*
X30531113Y33776610D01*
X30525576Y33781569D01*
X29871976Y34435169D01*
X29837950Y34497481D01*
X29843015Y34568296D01*
X29880502Y34621138D01*
X29899517Y34636952D01*
X30027012Y34742988D01*
X30162219Y34905558D01*
X30165043Y34910601D01*
X30165046Y34910605D01*
X30262713Y35085002D01*
X30262714Y35085004D01*
X30265537Y35090045D01*
X30267393Y35095512D01*
X30267395Y35095517D01*
X30331647Y35284800D01*
X30333504Y35290270D01*
X30341829Y35347680D01*
X30363314Y35495860D01*
X30363314Y35495862D01*
X30363846Y35499530D01*
X30365429Y35560000D01*
X30346081Y35770560D01*
X30288686Y35974069D01*
X30277553Y35996646D01*
X30197719Y36158531D01*
X30195165Y36163710D01*
X30068651Y36333133D01*
X29913381Y36476663D01*
X29848529Y36517582D01*
X29739434Y36586416D01*
X29739433Y36586416D01*
X29734554Y36589495D01*
X29538160Y36667848D01*
X29532503Y36668973D01*
X29532497Y36668975D01*
X29335234Y36708212D01*
X29272324Y36741119D01*
X29237192Y36802814D01*
X29240992Y36873709D01*
X29282517Y36931295D01*
X29341734Y36956487D01*
X29474015Y36975667D01*
X29474019Y36975668D01*
X29479730Y36976496D01*
X29567866Y37006414D01*
X29674483Y37042605D01*
X29674488Y37042607D01*
X29679955Y37044463D01*
X29684998Y37047287D01*
X29859395Y37144954D01*
X29859399Y37144957D01*
X29864442Y37147781D01*
X30027012Y37282988D01*
X30162219Y37445558D01*
X30165043Y37450601D01*
X30165046Y37450605D01*
X30262713Y37625002D01*
X30262714Y37625004D01*
X30265537Y37630045D01*
X30267393Y37635512D01*
X30267395Y37635517D01*
X30331647Y37824800D01*
X30333504Y37830270D01*
X30335083Y37841155D01*
X30363314Y38035860D01*
X30363314Y38035862D01*
X30363846Y38039530D01*
X30365429Y38100000D01*
X30346081Y38310560D01*
X30288686Y38514069D01*
X30286129Y38519256D01*
X30197719Y38698531D01*
X30195165Y38703710D01*
X30109259Y38818752D01*
X30072104Y38868509D01*
X30072103Y38868510D01*
X30068651Y38873133D01*
X29943536Y38988788D01*
X29917622Y39012743D01*
X29917620Y39012745D01*
X29913381Y39016663D01*
X29845357Y39059583D01*
X29739434Y39126416D01*
X29739433Y39126416D01*
X29734554Y39129495D01*
X29538160Y39207848D01*
X29532503Y39208973D01*
X29532497Y39208975D01*
X29335234Y39248212D01*
X29272324Y39281119D01*
X29237192Y39342814D01*
X29240992Y39413709D01*
X29282517Y39471295D01*
X29341734Y39496487D01*
X29474015Y39515667D01*
X29474019Y39515668D01*
X29479730Y39516496D01*
X29558987Y39543400D01*
X29674483Y39582605D01*
X29674488Y39582607D01*
X29679955Y39584463D01*
X29684998Y39587287D01*
X29859395Y39684954D01*
X29859399Y39684957D01*
X29864442Y39687781D01*
X30027012Y39822988D01*
X30033419Y39830692D01*
X30126023Y39942036D01*
X30184960Y39981620D01*
X30255942Y39983056D01*
X30311992Y39950563D01*
G37*
G04 #@! TD.AperFunction*
G04 #@! TA.AperFunction,Conductor*
G36*
X22099542Y39177298D02*
G01*
X22146035Y39123642D01*
X22156139Y39053368D01*
X22126645Y38988788D01*
X22114504Y38976573D01*
X22021881Y38895345D01*
X21890976Y38729292D01*
X21888287Y38724181D01*
X21888285Y38724178D01*
X21874792Y38698531D01*
X21792523Y38542164D01*
X21729820Y38340227D01*
X21704967Y38130246D01*
X21718796Y37919251D01*
X21720217Y37913655D01*
X21720218Y37913650D01*
X21744492Y37818073D01*
X21770845Y37714310D01*
X21859369Y37522286D01*
X21981405Y37349609D01*
X22013882Y37317971D01*
X22081109Y37252482D01*
X22132865Y37202063D01*
X22137661Y37198858D01*
X22137664Y37198856D01*
X22258099Y37118384D01*
X22308677Y37084589D01*
X22313985Y37082308D01*
X22313986Y37082308D01*
X22497650Y37003400D01*
X22497653Y37003399D01*
X22502953Y37001122D01*
X22508582Y36999848D01*
X22508583Y36999848D01*
X22703550Y36955731D01*
X22703553Y36955731D01*
X22709186Y36954456D01*
X22714958Y36954229D01*
X22720687Y36953475D01*
X22720327Y36950743D01*
X22776604Y36931784D01*
X22820950Y36876341D01*
X22828282Y36805724D01*
X22796271Y36742353D01*
X22735081Y36706349D01*
X22725704Y36704368D01*
X22566650Y36677038D01*
X22566649Y36677038D01*
X22560953Y36676059D01*
X22362575Y36602873D01*
X22357614Y36599921D01*
X22357613Y36599921D01*
X22254325Y36538471D01*
X22180856Y36494762D01*
X22021881Y36355345D01*
X21890976Y36189292D01*
X21888287Y36184181D01*
X21888285Y36184178D01*
X21874792Y36158531D01*
X21792523Y36002164D01*
X21729820Y35800227D01*
X21704967Y35590246D01*
X21718796Y35379251D01*
X21720217Y35373655D01*
X21720218Y35373650D01*
X21744492Y35278073D01*
X21770845Y35174310D01*
X21773262Y35169067D01*
X21843657Y35016369D01*
X21859369Y34982286D01*
X21981405Y34809609D01*
X21985538Y34805583D01*
X21987455Y34803338D01*
X22016484Y34738547D01*
X22005876Y34668347D01*
X21983254Y34637328D01*
X21983723Y34636952D01*
X21977831Y34629597D01*
X21970916Y34623205D01*
X21967377Y34617113D01*
X21962418Y34611576D01*
X20961447Y33610605D01*
X20899135Y33576579D01*
X20872352Y33573700D01*
X20279133Y33573700D01*
X20211012Y33593702D01*
X20195314Y33605624D01*
X20109484Y33682097D01*
X20109480Y33682100D01*
X20103813Y33687149D01*
X20097105Y33690701D01*
X20097103Y33690702D01*
X19970842Y33757553D01*
X19970841Y33757554D01*
X19964133Y33761105D01*
X19810844Y33799609D01*
X19803246Y33799649D01*
X19803244Y33799649D01*
X19731820Y33800023D01*
X19652795Y33800437D01*
X19645408Y33798663D01*
X19645404Y33798663D01*
X19536027Y33772403D01*
X19499111Y33763540D01*
X19492367Y33760059D01*
X19492364Y33760058D01*
X19365412Y33694533D01*
X19358664Y33691050D01*
X19352942Y33686058D01*
X19352940Y33686057D01*
X19304933Y33644178D01*
X19239562Y33587151D01*
X19229407Y33572702D01*
X19164861Y33480862D01*
X19148682Y33457842D01*
X19091270Y33310587D01*
X19070640Y33153888D01*
X19071474Y33146337D01*
X19074080Y33122726D01*
X19061674Y33052822D01*
X19013444Y33000722D01*
X18948841Y32982900D01*
X10014535Y32982900D01*
X9946414Y33002902D01*
X9899921Y33056558D01*
X9889817Y33126832D01*
X9919311Y33191412D01*
X9925440Y33197995D01*
X10503040Y33775595D01*
X10565352Y33809621D01*
X10592135Y33812500D01*
X16045390Y33812500D01*
X16060198Y33811627D01*
X16091755Y33807892D01*
X16101017Y33809584D01*
X16101026Y33809584D01*
X16146352Y33817863D01*
X16150260Y33818514D01*
X16154490Y33819150D01*
X16205084Y33826756D01*
X16211248Y33829716D01*
X16217977Y33830945D01*
X16267215Y33856522D01*
X16270731Y33858279D01*
X16312259Y33878220D01*
X16312263Y33878222D01*
X16320750Y33882298D01*
X16325772Y33886941D01*
X16331841Y33890093D01*
X16336619Y33894174D01*
X16371794Y33929349D01*
X16375360Y33932779D01*
X16408056Y33963003D01*
X16414971Y33969395D01*
X16418510Y33975487D01*
X16423469Y33981024D01*
X21602840Y39160395D01*
X21665152Y39194421D01*
X21691935Y39197300D01*
X22031421Y39197300D01*
X22099542Y39177298D01*
G37*
G04 #@! TD.AperFunction*
G04 #@! TA.AperFunction,Conductor*
G36*
X21843015Y42609498D02*
G01*
X21877790Y42576221D01*
X21981405Y42429609D01*
X22132865Y42282063D01*
X22137659Y42278860D01*
X22137664Y42278856D01*
X22191695Y42242754D01*
X22237223Y42188277D01*
X22246071Y42117834D01*
X22210788Y42048893D01*
X21822473Y41660579D01*
X21438473Y41276579D01*
X21427383Y41266725D01*
X21409834Y41252891D01*
X21409830Y41252887D01*
X21402435Y41247057D01*
X21370843Y41201346D01*
X21368610Y41198223D01*
X21335638Y41153582D01*
X21333373Y41147132D01*
X21329483Y41141504D01*
X21326645Y41132529D01*
X21326642Y41132524D01*
X21312756Y41088615D01*
X21311508Y41084874D01*
X21310557Y41082164D01*
X21296243Y41041406D01*
X21296242Y41041403D01*
X21293123Y41032520D01*
X21292854Y41025684D01*
X21290793Y41019166D01*
X21290300Y41012902D01*
X21290300Y40963141D01*
X21290203Y40958195D01*
X21288086Y40904309D01*
X21289892Y40897498D01*
X21290300Y40890083D01*
X21290300Y40537987D01*
X21270298Y40469866D01*
X21253395Y40448892D01*
X15812108Y35007605D01*
X15749796Y34973579D01*
X15723013Y34970700D01*
X8810857Y34970700D01*
X8742736Y34990702D01*
X8696243Y35044358D01*
X8686139Y35114632D01*
X8691544Y35137201D01*
X8698369Y35157305D01*
X8743504Y35290270D01*
X8751829Y35347680D01*
X8773314Y35495860D01*
X8773314Y35495862D01*
X8773846Y35499530D01*
X8775429Y35560000D01*
X8756081Y35770560D01*
X8698686Y35974069D01*
X8687553Y35996646D01*
X8607719Y36158531D01*
X8605165Y36163710D01*
X8478651Y36333133D01*
X8323381Y36476663D01*
X8258529Y36517582D01*
X8149434Y36586416D01*
X8149433Y36586416D01*
X8144554Y36589495D01*
X7948160Y36667848D01*
X7942503Y36668973D01*
X7942497Y36668975D01*
X7745234Y36708212D01*
X7682324Y36741119D01*
X7647192Y36802814D01*
X7650992Y36873709D01*
X7692517Y36931295D01*
X7751734Y36956487D01*
X7884015Y36975667D01*
X7884019Y36975668D01*
X7889730Y36976496D01*
X7977866Y37006414D01*
X8084483Y37042605D01*
X8084488Y37042607D01*
X8089955Y37044463D01*
X8094998Y37047287D01*
X8269395Y37144954D01*
X8269399Y37144957D01*
X8274442Y37147781D01*
X8437012Y37282988D01*
X8572219Y37445558D01*
X8575043Y37450601D01*
X8575046Y37450605D01*
X8672713Y37625002D01*
X8672714Y37625004D01*
X8675537Y37630045D01*
X8677393Y37635512D01*
X8677395Y37635517D01*
X8741647Y37824800D01*
X8743504Y37830270D01*
X8745083Y37841155D01*
X8773314Y38035860D01*
X8773314Y38035862D01*
X8773846Y38039530D01*
X8775429Y38100000D01*
X8756081Y38310560D01*
X8698686Y38514069D01*
X8696131Y38519251D01*
X8696129Y38519256D01*
X8637683Y38637772D01*
X8625493Y38707714D01*
X8653052Y38773143D01*
X8711610Y38813287D01*
X8750689Y38819500D01*
X13955007Y38819500D01*
X13960284Y38819389D01*
X14022294Y38816790D01*
X14033848Y38819500D01*
X14064662Y38826727D01*
X14076333Y38828890D01*
X14091229Y38830931D01*
X14119432Y38834794D01*
X14133230Y38840765D01*
X14154499Y38847799D01*
X14160775Y38849271D01*
X14169136Y38851232D01*
X14176661Y38855369D01*
X14176664Y38855370D01*
X14207268Y38872195D01*
X14217913Y38877411D01*
X14257855Y38894695D01*
X14269541Y38904158D01*
X14288126Y38916646D01*
X14295518Y38920710D01*
X14301308Y38923893D01*
X14309422Y38930897D01*
X14333958Y38955433D01*
X14343759Y38964258D01*
X14368392Y38984206D01*
X14368393Y38984207D01*
X14375070Y38989614D01*
X14380043Y38996612D01*
X14380048Y38996617D01*
X14385968Y39004948D01*
X14399579Y39021054D01*
X17971120Y42592595D01*
X18033432Y42626621D01*
X18060215Y42629500D01*
X21774894Y42629500D01*
X21843015Y42609498D01*
G37*
G04 #@! TD.AperFunction*
G04 #@! TA.AperFunction,Conductor*
G36*
X21244526Y44663698D02*
G01*
X21265500Y44646795D01*
X21854217Y44058078D01*
X21864072Y44046988D01*
X21877910Y44029434D01*
X21877914Y44029430D01*
X21883744Y44022035D01*
X21891493Y44016680D01*
X21898358Y44010233D01*
X21896319Y44008062D01*
X21931282Y43964854D01*
X21939013Y43894279D01*
X21913920Y43838397D01*
X21912222Y43836242D01*
X21894552Y43813829D01*
X21894549Y43813824D01*
X21890976Y43809292D01*
X21888286Y43804179D01*
X21884949Y43797836D01*
X21835531Y43746861D01*
X21773439Y43730500D01*
X17794993Y43730500D01*
X17789717Y43730611D01*
X17785310Y43730796D01*
X17727706Y43733210D01*
X17719341Y43731248D01*
X17685338Y43723273D01*
X17673667Y43721110D01*
X17658771Y43719069D01*
X17630568Y43715206D01*
X17622684Y43711794D01*
X17622683Y43711794D01*
X17616770Y43709235D01*
X17595501Y43702201D01*
X17580864Y43698768D01*
X17573339Y43694631D01*
X17573336Y43694630D01*
X17542732Y43677805D01*
X17532087Y43672589D01*
X17492145Y43655305D01*
X17480459Y43645842D01*
X17461875Y43633355D01*
X17448692Y43626107D01*
X17440578Y43619103D01*
X17416042Y43594567D01*
X17406241Y43585742D01*
X17381608Y43565794D01*
X17374930Y43560386D01*
X17369957Y43553388D01*
X17369952Y43553383D01*
X17364032Y43545052D01*
X17350421Y43528946D01*
X15550396Y41728920D01*
X13778881Y39957405D01*
X13716569Y39923379D01*
X13689786Y39920500D01*
X8750761Y39920500D01*
X8682640Y39940502D01*
X8636147Y39994158D01*
X8626043Y40064432D01*
X8640827Y40108066D01*
X8672713Y40165002D01*
X8672714Y40165004D01*
X8675537Y40170045D01*
X8677393Y40175512D01*
X8677395Y40175517D01*
X8741647Y40364800D01*
X8743504Y40370270D01*
X8767823Y40537987D01*
X8773314Y40575860D01*
X8773314Y40575862D01*
X8773846Y40579530D01*
X8775429Y40640000D01*
X8756081Y40850560D01*
X8744935Y40890083D01*
X8735431Y40923781D01*
X8698686Y41054069D01*
X8694069Y41063433D01*
X8607719Y41238531D01*
X8605165Y41243710D01*
X8506902Y41375300D01*
X8482104Y41408509D01*
X8482103Y41408510D01*
X8478651Y41413133D01*
X8354846Y41527577D01*
X8327622Y41552743D01*
X8327620Y41552745D01*
X8323381Y41556663D01*
X8318498Y41559744D01*
X8318494Y41559747D01*
X8292053Y41576430D01*
X8245115Y41629696D01*
X8234425Y41699884D01*
X8263379Y41764708D01*
X8270193Y41772087D01*
X8927122Y42429016D01*
X8938212Y42438871D01*
X8955766Y42452709D01*
X8955770Y42452713D01*
X8963165Y42458543D01*
X8972301Y42471761D01*
X8994704Y42504177D01*
X8997006Y42507399D01*
X9029962Y42552017D01*
X9032228Y42558468D01*
X9036117Y42564096D01*
X9052864Y42617052D01*
X9054100Y42620754D01*
X9055451Y42624599D01*
X9072476Y42673080D01*
X9072744Y42679912D01*
X9074807Y42686434D01*
X9075300Y42692698D01*
X9075300Y42742469D01*
X9075397Y42747416D01*
X9075819Y42758145D01*
X9077514Y42801291D01*
X9075708Y42808102D01*
X9075300Y42815516D01*
X9075300Y44183612D01*
X9095302Y44251733D01*
X9112204Y44272707D01*
X9486291Y44646795D01*
X9548604Y44680820D01*
X9575387Y44683700D01*
X21176405Y44683700D01*
X21244526Y44663698D01*
G37*
G04 #@! TD.AperFunction*
G04 #@! TA.AperFunction,Conductor*
G36*
X28109683Y49197398D02*
G01*
X28156176Y49143742D01*
X28166280Y49073468D01*
X28144775Y49019129D01*
X28076069Y48921007D01*
X28070586Y48911511D01*
X27978510Y48714053D01*
X27974764Y48703761D01*
X27928606Y48531497D01*
X27928942Y48517401D01*
X27936884Y48514000D01*
X30477967Y48514000D01*
X30491498Y48517973D01*
X30492727Y48526522D01*
X30445236Y48703761D01*
X30441490Y48714053D01*
X30349414Y48911511D01*
X30343931Y48921007D01*
X30275225Y49019129D01*
X30252537Y49086403D01*
X30269822Y49155264D01*
X30321592Y49203848D01*
X30378438Y49217400D01*
X41808065Y49217400D01*
X41876186Y49197398D01*
X41897160Y49180495D01*
X43096177Y47981478D01*
X43106032Y47970388D01*
X43119870Y47952834D01*
X43119874Y47952830D01*
X43125704Y47945435D01*
X43171415Y47913843D01*
X43174538Y47911610D01*
X43219179Y47878638D01*
X43225629Y47876373D01*
X43231257Y47872483D01*
X43240232Y47869645D01*
X43240237Y47869642D01*
X43284146Y47855756D01*
X43287902Y47854503D01*
X43335490Y47837791D01*
X43393135Y47796348D01*
X43408167Y47771660D01*
X43446951Y47687531D01*
X43449369Y47682286D01*
X43571405Y47509609D01*
X43604881Y47476998D01*
X43671109Y47412482D01*
X43722865Y47362063D01*
X43727661Y47358858D01*
X43727664Y47358856D01*
X43853026Y47275092D01*
X43898677Y47244589D01*
X43903977Y47242312D01*
X43903988Y47242306D01*
X43960150Y47218177D01*
X44014842Y47172909D01*
X44035010Y47121145D01*
X44036154Y47113534D01*
X44036156Y47113527D01*
X44037556Y47104216D01*
X44040516Y47098052D01*
X44041745Y47091323D01*
X44067322Y47042085D01*
X44069079Y47038569D01*
X44089020Y46997041D01*
X44089022Y46997037D01*
X44093098Y46988550D01*
X44097741Y46983528D01*
X44098535Y46982000D01*
X44098726Y46981397D01*
X44099660Y46979832D01*
X44100888Y46977468D01*
X44100103Y46977060D01*
X44119764Y46915127D01*
X44101251Y46846587D01*
X44048622Y46798935D01*
X44037405Y46794169D01*
X43972950Y46770390D01*
X43952575Y46762873D01*
X43770856Y46654762D01*
X43611881Y46515345D01*
X43480976Y46349292D01*
X43478287Y46344181D01*
X43478285Y46344178D01*
X43442687Y46276517D01*
X43382523Y46162164D01*
X43319820Y45960227D01*
X43294967Y45750246D01*
X43308796Y45539251D01*
X43310217Y45533655D01*
X43310218Y45533650D01*
X43349248Y45379974D01*
X43360845Y45334310D01*
X43363262Y45329067D01*
X43374810Y45304018D01*
X43449369Y45142286D01*
X43571405Y44969609D01*
X43575539Y44965582D01*
X43671109Y44872482D01*
X43722865Y44822063D01*
X43727661Y44818858D01*
X43727664Y44818856D01*
X43848141Y44738356D01*
X43898677Y44704589D01*
X43903985Y44702308D01*
X43903986Y44702308D01*
X44087650Y44623400D01*
X44087653Y44623399D01*
X44092953Y44621122D01*
X44098582Y44619848D01*
X44098583Y44619848D01*
X44293550Y44575731D01*
X44293553Y44575731D01*
X44299186Y44574456D01*
X44304958Y44574229D01*
X44310687Y44573475D01*
X44310327Y44570743D01*
X44366604Y44551784D01*
X44410950Y44496341D01*
X44418282Y44425724D01*
X44386271Y44362353D01*
X44325081Y44326349D01*
X44315704Y44324368D01*
X44156650Y44297038D01*
X44156649Y44297038D01*
X44150953Y44296059D01*
X43952575Y44222873D01*
X43947614Y44219921D01*
X43947613Y44219921D01*
X43800557Y44132432D01*
X43770856Y44114762D01*
X43611881Y43975345D01*
X43480976Y43809292D01*
X43478287Y43804181D01*
X43478285Y43804178D01*
X43445963Y43742743D01*
X43382523Y43622164D01*
X43319820Y43420227D01*
X43294967Y43210246D01*
X43308796Y42999251D01*
X43310217Y42993655D01*
X43310218Y42993650D01*
X43356951Y42809641D01*
X43360845Y42794310D01*
X43363262Y42789067D01*
X43379751Y42753300D01*
X43449369Y42602286D01*
X43571405Y42429609D01*
X43722865Y42282063D01*
X43727659Y42278860D01*
X43727664Y42278856D01*
X43851455Y42196142D01*
X43898677Y42164589D01*
X43903977Y42162312D01*
X43903988Y42162306D01*
X43960150Y42138177D01*
X44014842Y42092909D01*
X44035010Y42041145D01*
X44036154Y42033534D01*
X44036156Y42033527D01*
X44037556Y42024216D01*
X44040516Y42018052D01*
X44041745Y42011323D01*
X44067322Y41962085D01*
X44069079Y41958569D01*
X44089020Y41917041D01*
X44089022Y41917037D01*
X44093098Y41908550D01*
X44097741Y41903528D01*
X44098535Y41902000D01*
X44098726Y41901397D01*
X44099660Y41899832D01*
X44100888Y41897468D01*
X44100103Y41897060D01*
X44119764Y41835127D01*
X44101251Y41766587D01*
X44048622Y41718935D01*
X44037405Y41714169D01*
X43998685Y41699884D01*
X43952575Y41682873D01*
X43947614Y41679921D01*
X43947613Y41679921D01*
X43796602Y41590079D01*
X43770856Y41574762D01*
X43611881Y41435345D01*
X43480976Y41269292D01*
X43478287Y41264181D01*
X43478285Y41264178D01*
X43409812Y41134032D01*
X43360393Y41083060D01*
X43298304Y41066700D01*
X31748091Y41066700D01*
X31679970Y41086702D01*
X31658996Y41103605D01*
X31616605Y41145996D01*
X31582579Y41208308D01*
X31579700Y41235091D01*
X31579700Y43520954D01*
X31580573Y43535765D01*
X31583201Y43557968D01*
X31584308Y43567319D01*
X31574336Y43621920D01*
X31573687Y43625818D01*
X31566844Y43671337D01*
X31565444Y43680649D01*
X31562484Y43686814D01*
X31561255Y43693541D01*
X31535697Y43742743D01*
X31533930Y43746280D01*
X31513981Y43787823D01*
X31513977Y43787829D01*
X31509902Y43796315D01*
X31505258Y43801339D01*
X31502107Y43807405D01*
X31498027Y43812183D01*
X31462851Y43847359D01*
X31459421Y43850925D01*
X31429197Y43883621D01*
X31429198Y43883621D01*
X31422805Y43890536D01*
X31416713Y43894075D01*
X31411176Y43899034D01*
X31007005Y44303205D01*
X30972979Y44365517D01*
X30970100Y44392300D01*
X30970100Y46239503D01*
X30970973Y46254314D01*
X30973601Y46276517D01*
X30974708Y46285868D01*
X30973016Y46295130D01*
X30973016Y46295139D01*
X30964737Y46340465D01*
X30964086Y46344373D01*
X30962496Y46354947D01*
X30955844Y46399197D01*
X30952884Y46405361D01*
X30951655Y46412090D01*
X30926078Y46461328D01*
X30924321Y46464844D01*
X30904380Y46506372D01*
X30904378Y46506376D01*
X30900302Y46514863D01*
X30895659Y46519885D01*
X30892507Y46525954D01*
X30888426Y46530732D01*
X30853251Y46565907D01*
X30849821Y46569473D01*
X30819597Y46602169D01*
X30819598Y46602169D01*
X30813205Y46609084D01*
X30807113Y46612623D01*
X30801576Y46617582D01*
X30198570Y47220588D01*
X30164544Y47282900D01*
X30169609Y47353715D01*
X30198570Y47398778D01*
X30211918Y47412126D01*
X30218969Y47420529D01*
X30343931Y47598993D01*
X30349414Y47608489D01*
X30441490Y47805947D01*
X30445236Y47816239D01*
X30491394Y47988503D01*
X30491058Y48002599D01*
X30483116Y48006000D01*
X27942033Y48006000D01*
X27894550Y47992058D01*
X27823553Y47992058D01*
X27769957Y48023859D01*
X26791511Y49002305D01*
X26757485Y49064617D01*
X26762550Y49135432D01*
X26805097Y49192268D01*
X26871617Y49217079D01*
X26880606Y49217400D01*
X28041562Y49217400D01*
X28109683Y49197398D01*
G37*
G04 #@! TD.AperFunction*
G04 #@! TA.AperFunction,Conductor*
G36*
X21757517Y47874028D02*
G01*
X21791280Y47829983D01*
X21859369Y47682286D01*
X21981405Y47509609D01*
X22014881Y47476998D01*
X22081109Y47412482D01*
X22132865Y47362063D01*
X22137665Y47358856D01*
X22190695Y47323422D01*
X22236223Y47268945D01*
X22245071Y47198502D01*
X22219030Y47139880D01*
X22218483Y47139197D01*
X22211568Y47132805D01*
X22208029Y47126713D01*
X22203075Y47121181D01*
X21476942Y46395046D01*
X21265501Y46183605D01*
X21203188Y46149580D01*
X21176405Y46146700D01*
X9126758Y46146700D01*
X9111950Y46147573D01*
X9080393Y46151308D01*
X9071131Y46149616D01*
X9071122Y46149616D01*
X9025796Y46141337D01*
X9021887Y46140686D01*
X8967064Y46132444D01*
X8960900Y46129484D01*
X8954171Y46128255D01*
X8904933Y46102678D01*
X8901418Y46100922D01*
X8863119Y46082531D01*
X8793053Y46071074D01*
X8727916Y46099317D01*
X8695571Y46140386D01*
X8607721Y46318527D01*
X8605165Y46323710D01*
X8559691Y46384607D01*
X8486657Y46482412D01*
X8461925Y46548962D01*
X8477099Y46618318D01*
X8496355Y46642985D01*
X8496277Y46643048D01*
X8501257Y46649264D01*
X8502085Y46650325D01*
X8502169Y46650402D01*
X8502172Y46650405D01*
X8509084Y46656795D01*
X8512623Y46662887D01*
X8517582Y46668424D01*
X9645553Y47796395D01*
X9707865Y47830421D01*
X9734648Y47833300D01*
X21372529Y47833300D01*
X21387337Y47832427D01*
X21418894Y47828692D01*
X21428156Y47830384D01*
X21428165Y47830384D01*
X21473491Y47838663D01*
X21477399Y47839314D01*
X21479428Y47839619D01*
X21532223Y47847556D01*
X21538387Y47850516D01*
X21545116Y47851745D01*
X21594354Y47877322D01*
X21597870Y47879079D01*
X21622313Y47890816D01*
X21692380Y47902272D01*
X21757517Y47874028D01*
G37*
G04 #@! TD.AperFunction*
G04 #@! TA.AperFunction,Conductor*
G36*
X21533825Y51747998D02*
G01*
X21580318Y51694342D01*
X21590422Y51624068D01*
X21560928Y51559488D01*
X21554799Y51552905D01*
X21552878Y51550984D01*
X21541788Y51541129D01*
X21524234Y51527291D01*
X21524230Y51527287D01*
X21516835Y51521457D01*
X21485243Y51475746D01*
X21483010Y51472623D01*
X21450038Y51427982D01*
X21447773Y51421532D01*
X21443883Y51415904D01*
X21441045Y51406929D01*
X21441042Y51406924D01*
X21427156Y51363015D01*
X21425903Y51359258D01*
X21410643Y51315806D01*
X21410642Y51315803D01*
X21407523Y51306920D01*
X21407254Y51300084D01*
X21405193Y51293566D01*
X21404700Y51287302D01*
X21404700Y51237541D01*
X21404603Y51232595D01*
X21402486Y51178709D01*
X21404292Y51171898D01*
X21404700Y51164483D01*
X21404700Y49777100D01*
X21384698Y49708979D01*
X21367795Y49688005D01*
X21038395Y49358605D01*
X20976083Y49324579D01*
X20949300Y49321700D01*
X8287811Y49321700D01*
X8273003Y49322573D01*
X8241446Y49326308D01*
X8186845Y49316336D01*
X8182956Y49315688D01*
X8141114Y49309398D01*
X8075693Y49316968D01*
X7953524Y49365708D01*
X7948160Y49367848D01*
X7942503Y49368973D01*
X7942497Y49368975D01*
X7786916Y49399921D01*
X7724006Y49432828D01*
X7688874Y49494523D01*
X7692674Y49565418D01*
X7734199Y49623004D01*
X7800266Y49648998D01*
X7811497Y49649500D01*
X8453218Y49649500D01*
X8457768Y49650170D01*
X8457771Y49650170D01*
X8512426Y49658216D01*
X8512427Y49658216D01*
X8522112Y49659642D01*
X8579881Y49688005D01*
X8617507Y49706478D01*
X8617509Y49706479D01*
X8626855Y49711068D01*
X8709293Y49793650D01*
X8760536Y49898482D01*
X8765676Y49933712D01*
X8769840Y49962256D01*
X8769840Y49962260D01*
X8770500Y49966782D01*
X8770500Y51633218D01*
X8770412Y51633815D01*
X8785168Y51702199D01*
X8835285Y51752485D01*
X8895857Y51768000D01*
X21465704Y51768000D01*
X21533825Y51747998D01*
G37*
G04 #@! TD.AperFunction*
M02*
