G04 #@! TF.GenerationSoftware,KiCad,Pcbnew,(6.0.9-0)*
G04 #@! TF.CreationDate,2022-12-09T10:48:47+09:00*
G04 #@! TF.ProjectId,MEZ6502RAM,4d455a36-3530-4325-9241-4d2e6b696361,A*
G04 #@! TF.SameCoordinates,PX5f5e100PY8f0d180*
G04 #@! TF.FileFunction,Legend,Top*
G04 #@! TF.FilePolarity,Positive*
%FSLAX46Y46*%
G04 Gerber Fmt 4.6, Leading zero omitted, Abs format (unit mm)*
G04 Created by KiCad (PCBNEW (6.0.9-0)) date 2022-12-09 10:48:47*
%MOMM*%
%LPD*%
G01*
G04 APERTURE LIST*
%ADD10C,0.150000*%
%ADD11C,0.200000*%
%ADD12C,0.120000*%
G04 APERTURE END LIST*
D10*
X11930476Y25947620D02*
X12168571Y24947620D01*
X12359047Y25661905D01*
X12549523Y24947620D01*
X12787619Y25947620D01*
X13597142Y25947620D02*
X13406666Y25947620D01*
X13311428Y25900000D01*
X13263809Y25852381D01*
X13168571Y25709524D01*
X13120952Y25519048D01*
X13120952Y25138096D01*
X13168571Y25042858D01*
X13216190Y24995239D01*
X13311428Y24947620D01*
X13501904Y24947620D01*
X13597142Y24995239D01*
X13644761Y25042858D01*
X13692380Y25138096D01*
X13692380Y25376191D01*
X13644761Y25471429D01*
X13597142Y25519048D01*
X13501904Y25566667D01*
X13311428Y25566667D01*
X13216190Y25519048D01*
X13168571Y25471429D01*
X13120952Y25376191D01*
X14597142Y25947620D02*
X14120952Y25947620D01*
X14073333Y25471429D01*
X14120952Y25519048D01*
X14216190Y25566667D01*
X14454285Y25566667D01*
X14549523Y25519048D01*
X14597142Y25471429D01*
X14644761Y25376191D01*
X14644761Y25138096D01*
X14597142Y25042858D01*
X14549523Y24995239D01*
X14454285Y24947620D01*
X14216190Y24947620D01*
X14120952Y24995239D01*
X14073333Y25042858D01*
X15644761Y25042858D02*
X15597142Y24995239D01*
X15454285Y24947620D01*
X15359047Y24947620D01*
X15216190Y24995239D01*
X15120952Y25090477D01*
X15073333Y25185715D01*
X15025714Y25376191D01*
X15025714Y25519048D01*
X15073333Y25709524D01*
X15120952Y25804762D01*
X15216190Y25900000D01*
X15359047Y25947620D01*
X15454285Y25947620D01*
X15597142Y25900000D01*
X15644761Y25852381D01*
X16263809Y25947620D02*
X16359047Y25947620D01*
X16454285Y25900000D01*
X16501904Y25852381D01*
X16549523Y25757143D01*
X16597142Y25566667D01*
X16597142Y25328572D01*
X16549523Y25138096D01*
X16501904Y25042858D01*
X16454285Y24995239D01*
X16359047Y24947620D01*
X16263809Y24947620D01*
X16168571Y24995239D01*
X16120952Y25042858D01*
X16073333Y25138096D01*
X16025714Y25328572D01*
X16025714Y25566667D01*
X16073333Y25757143D01*
X16120952Y25852381D01*
X16168571Y25900000D01*
X16263809Y25947620D01*
X16978095Y25852381D02*
X17025714Y25900000D01*
X17120952Y25947620D01*
X17359047Y25947620D01*
X17454285Y25900000D01*
X17501904Y25852381D01*
X17549523Y25757143D01*
X17549523Y25661905D01*
X17501904Y25519048D01*
X16930476Y24947620D01*
X17549523Y24947620D01*
X17930476Y24995239D02*
X18073333Y24947620D01*
X18311428Y24947620D01*
X18406666Y24995239D01*
X18454285Y25042858D01*
X18501904Y25138096D01*
X18501904Y25233334D01*
X18454285Y25328572D01*
X18406666Y25376191D01*
X18311428Y25423810D01*
X18120952Y25471429D01*
X18025714Y25519048D01*
X17978095Y25566667D01*
X17930476Y25661905D01*
X17930476Y25757143D01*
X17978095Y25852381D01*
X18025714Y25900000D01*
X18120952Y25947620D01*
X18359047Y25947620D01*
X18501904Y25900000D01*
X33187142Y25947620D02*
X33758571Y25947620D01*
X33472857Y24947620D02*
X33472857Y25947620D01*
X34663333Y25042858D02*
X34615714Y24995239D01*
X34472857Y24947620D01*
X34377619Y24947620D01*
X34234761Y24995239D01*
X34139523Y25090477D01*
X34091904Y25185715D01*
X34044285Y25376191D01*
X34044285Y25519048D01*
X34091904Y25709524D01*
X34139523Y25804762D01*
X34234761Y25900000D01*
X34377619Y25947620D01*
X34472857Y25947620D01*
X34615714Y25900000D01*
X34663333Y25852381D01*
X35568095Y25947620D02*
X35091904Y25947620D01*
X35044285Y25471429D01*
X35091904Y25519048D01*
X35187142Y25566667D01*
X35425238Y25566667D01*
X35520476Y25519048D01*
X35568095Y25471429D01*
X35615714Y25376191D01*
X35615714Y25138096D01*
X35568095Y25042858D01*
X35520476Y24995239D01*
X35425238Y24947620D01*
X35187142Y24947620D01*
X35091904Y24995239D01*
X35044285Y25042858D01*
X36520476Y25947620D02*
X36044285Y25947620D01*
X35996666Y25471429D01*
X36044285Y25519048D01*
X36139523Y25566667D01*
X36377619Y25566667D01*
X36472857Y25519048D01*
X36520476Y25471429D01*
X36568095Y25376191D01*
X36568095Y25138096D01*
X36520476Y25042858D01*
X36472857Y24995239D01*
X36377619Y24947620D01*
X36139523Y24947620D01*
X36044285Y24995239D01*
X35996666Y25042858D01*
X37520476Y24947620D02*
X36949047Y24947620D01*
X37234761Y24947620D02*
X37234761Y25947620D01*
X37139523Y25804762D01*
X37044285Y25709524D01*
X36949047Y25661905D01*
X38139523Y25947620D02*
X38234761Y25947620D01*
X38330000Y25900000D01*
X38377619Y25852381D01*
X38425238Y25757143D01*
X38472857Y25566667D01*
X38472857Y25328572D01*
X38425238Y25138096D01*
X38377619Y25042858D01*
X38330000Y24995239D01*
X38234761Y24947620D01*
X38139523Y24947620D01*
X38044285Y24995239D01*
X37996666Y25042858D01*
X37949047Y25138096D01*
X37901428Y25328572D01*
X37901428Y25566667D01*
X37949047Y25757143D01*
X37996666Y25852381D01*
X38044285Y25900000D01*
X38139523Y25947620D01*
X39091904Y25947620D02*
X39187142Y25947620D01*
X39282380Y25900000D01*
X39330000Y25852381D01*
X39377619Y25757143D01*
X39425238Y25566667D01*
X39425238Y25328572D01*
X39377619Y25138096D01*
X39330000Y25042858D01*
X39282380Y24995239D01*
X39187142Y24947620D01*
X39091904Y24947620D01*
X38996666Y24995239D01*
X38949047Y25042858D01*
X38901428Y25138096D01*
X38853809Y25328572D01*
X38853809Y25566667D01*
X38901428Y25757143D01*
X38949047Y25852381D01*
X38996666Y25900000D01*
X39091904Y25947620D01*
X40377619Y24947620D02*
X39806190Y24947620D01*
X40091904Y24947620D02*
X40091904Y25947620D01*
X39996666Y25804762D01*
X39901428Y25709524D01*
X39806190Y25661905D01*
X32837619Y55792620D02*
X33456666Y55792620D01*
X33123333Y55411667D01*
X33266190Y55411667D01*
X33361428Y55364048D01*
X33409047Y55316429D01*
X33456666Y55221191D01*
X33456666Y54983096D01*
X33409047Y54887858D01*
X33361428Y54840239D01*
X33266190Y54792620D01*
X32980476Y54792620D01*
X32885238Y54840239D01*
X32837619Y54887858D01*
X33885238Y54887858D02*
X33932857Y54840239D01*
X33885238Y54792620D01*
X33837619Y54840239D01*
X33885238Y54887858D01*
X33885238Y54792620D01*
X34266190Y55792620D02*
X34885238Y55792620D01*
X34551904Y55411667D01*
X34694761Y55411667D01*
X34790000Y55364048D01*
X34837619Y55316429D01*
X34885238Y55221191D01*
X34885238Y54983096D01*
X34837619Y54887858D01*
X34790000Y54840239D01*
X34694761Y54792620D01*
X34409047Y54792620D01*
X34313809Y54840239D01*
X34266190Y54887858D01*
X35313809Y54792620D02*
X35313809Y55792620D01*
X35409047Y55173572D02*
X35694761Y54792620D01*
X35694761Y55459286D02*
X35313809Y55078334D01*
D11*
X9640000Y54702143D02*
X9640000Y55902143D01*
X10040000Y55045000D01*
X10440000Y55902143D01*
X10440000Y54702143D01*
X11011428Y55330715D02*
X11411428Y55330715D01*
X11582857Y54702143D02*
X11011428Y54702143D01*
X11011428Y55902143D01*
X11582857Y55902143D01*
X11982857Y55902143D02*
X12782857Y55902143D01*
X11982857Y54702143D01*
X12782857Y54702143D01*
X13754285Y55902143D02*
X13525714Y55902143D01*
X13411428Y55845000D01*
X13354285Y55787858D01*
X13240000Y55616429D01*
X13182857Y55387858D01*
X13182857Y54930715D01*
X13240000Y54816429D01*
X13297142Y54759286D01*
X13411428Y54702143D01*
X13640000Y54702143D01*
X13754285Y54759286D01*
X13811428Y54816429D01*
X13868571Y54930715D01*
X13868571Y55216429D01*
X13811428Y55330715D01*
X13754285Y55387858D01*
X13640000Y55445000D01*
X13411428Y55445000D01*
X13297142Y55387858D01*
X13240000Y55330715D01*
X13182857Y55216429D01*
X14954285Y55902143D02*
X14382857Y55902143D01*
X14325714Y55330715D01*
X14382857Y55387858D01*
X14497142Y55445000D01*
X14782857Y55445000D01*
X14897142Y55387858D01*
X14954285Y55330715D01*
X15011428Y55216429D01*
X15011428Y54930715D01*
X14954285Y54816429D01*
X14897142Y54759286D01*
X14782857Y54702143D01*
X14497142Y54702143D01*
X14382857Y54759286D01*
X14325714Y54816429D01*
X15754285Y55902143D02*
X15868571Y55902143D01*
X15982857Y55845000D01*
X16040000Y55787858D01*
X16097142Y55673572D01*
X16154285Y55445000D01*
X16154285Y55159286D01*
X16097142Y54930715D01*
X16040000Y54816429D01*
X15982857Y54759286D01*
X15868571Y54702143D01*
X15754285Y54702143D01*
X15640000Y54759286D01*
X15582857Y54816429D01*
X15525714Y54930715D01*
X15468571Y55159286D01*
X15468571Y55445000D01*
X15525714Y55673572D01*
X15582857Y55787858D01*
X15640000Y55845000D01*
X15754285Y55902143D01*
X16611428Y55787858D02*
X16668571Y55845000D01*
X16782857Y55902143D01*
X17068571Y55902143D01*
X17182857Y55845000D01*
X17240000Y55787858D01*
X17297142Y55673572D01*
X17297142Y55559286D01*
X17240000Y55387858D01*
X16554285Y54702143D01*
X17297142Y54702143D01*
X18497142Y54702143D02*
X18097142Y55273572D01*
X17811428Y54702143D02*
X17811428Y55902143D01*
X18268571Y55902143D01*
X18382857Y55845000D01*
X18440000Y55787858D01*
X18497142Y55673572D01*
X18497142Y55502143D01*
X18440000Y55387858D01*
X18382857Y55330715D01*
X18268571Y55273572D01*
X17811428Y55273572D01*
X18954285Y55045000D02*
X19525714Y55045000D01*
X18840000Y54702143D02*
X19240000Y55902143D01*
X19640000Y54702143D01*
X20040000Y54702143D02*
X20040000Y55902143D01*
X20440000Y55045000D01*
X20840000Y55902143D01*
X20840000Y54702143D01*
D10*
X36068095Y43727620D02*
X36068095Y42918096D01*
X36115714Y42822858D01*
X36163333Y42775239D01*
X36258571Y42727620D01*
X36449047Y42727620D01*
X36544285Y42775239D01*
X36591904Y42822858D01*
X36639523Y42918096D01*
X36639523Y43727620D01*
X37068095Y43632381D02*
X37115714Y43680000D01*
X37210952Y43727620D01*
X37449047Y43727620D01*
X37544285Y43680000D01*
X37591904Y43632381D01*
X37639523Y43537143D01*
X37639523Y43441905D01*
X37591904Y43299048D01*
X37020476Y42727620D01*
X37639523Y42727620D01*
X14478095Y43727620D02*
X14478095Y42918096D01*
X14525714Y42822858D01*
X14573333Y42775239D01*
X14668571Y42727620D01*
X14859047Y42727620D01*
X14954285Y42775239D01*
X15001904Y42822858D01*
X15049523Y42918096D01*
X15049523Y43727620D01*
X16049523Y42727620D02*
X15478095Y42727620D01*
X15763809Y42727620D02*
X15763809Y43727620D01*
X15668571Y43584762D01*
X15573333Y43489524D01*
X15478095Y43441905D01*
D12*
X35830000Y52130000D02*
X30370000Y52130000D01*
X30370000Y11370000D02*
X43290000Y11370000D01*
X43290000Y11370000D02*
X43290000Y52130000D01*
X43290000Y52130000D02*
X37830000Y52130000D01*
X30370000Y52130000D02*
X30370000Y11370000D01*
X35830000Y52130000D02*
G75*
G03*
X37830000Y52130000I1000000J0D01*
G01*
X30250000Y55245000D02*
X31020000Y55245000D01*
X37560000Y53875000D02*
X37560000Y56615000D01*
X31020000Y56615000D02*
X31020000Y53875000D01*
X38330000Y55245000D02*
X37560000Y55245000D01*
X37560000Y56615000D02*
X31020000Y56615000D01*
X31020000Y53875000D02*
X37560000Y53875000D01*
X8780000Y52130000D02*
X8780000Y1210000D01*
X8780000Y1210000D02*
X21700000Y1210000D01*
X21700000Y1210000D02*
X21700000Y52130000D01*
X14240000Y52130000D02*
X8780000Y52130000D01*
X21700000Y52130000D02*
X16240000Y52130000D01*
X14240000Y52130000D02*
G75*
G03*
X16240000Y52130000I1000000J0D01*
G01*
X41160000Y54450000D02*
X41160000Y53825000D01*
X45200000Y56665000D02*
X45200000Y56040000D01*
X45200000Y54450000D02*
X45200000Y53825000D01*
X41160000Y53825000D02*
X45200000Y53825000D01*
X41160000Y56665000D02*
X41160000Y56040000D01*
X41160000Y56665000D02*
X45200000Y56665000D01*
X4310000Y53825000D02*
X4310000Y54450000D01*
X8350000Y53825000D02*
X4310000Y53825000D01*
X8350000Y56040000D02*
X8350000Y56665000D01*
X4310000Y56040000D02*
X4310000Y56665000D01*
X8350000Y53825000D02*
X8350000Y54450000D01*
X8350000Y56665000D02*
X4310000Y56665000D01*
M02*
